<svg version="1.1" xmlns="http://www.w3.org/2000/svg" xmlns:xlink="http://www.w3.org/1999/xlink" width="351.43759" height="351.43759" viewBox="0,0,351.43759,351.43759"><defs><radialGradient cx="240" cy="180" r="175.7188" gradientUnits="userSpaceOnUse" id="color-1"><stop offset="0" stop-color="#9e9e9e"/><stop offset="1" stop-color="#9e9e9e" stop-opacity="0"/></radialGradient></defs><g transform="translate(-64.2812,-4.2812)"><g data-paper-data="{&quot;isPaintingLayer&quot;:true}" fill-rule="nonzero" stroke="none" stroke-linecap="butt" stroke-linejoin="miter" stroke-miterlimit="10" stroke-dasharray="" stroke-dashoffset="0" style="mix-blend-mode: normal"><path d="M64.2812,180c0,-97.04681 78.67199,-175.7188 175.7188,-175.7188c97.04681,0 175.7188,78.67199 175.7188,175.7188c0,97.04681 -78.67199,175.7188 -175.7188,175.7188c-97.04681,0 -175.7188,-78.67199 -175.7188,-175.7188z" fill="url(#color-1)" stroke-width="1"/><path d="M117.61037,180c0,-67.59393 54.79571,-122.38963 122.38963,-122.38963c67.59393,0 122.38963,54.79571 122.38963,122.38963c0,67.59393 -54.79571,122.38963 -122.38963,122.38963c-67.59393,0 -122.38963,-54.79571 -122.38963,-122.38963z" fill="#747474" stroke-width="0"/><path d="M234.86,60.98c-1.26833,0.84557 -2.6438,1.51817 -4.09,2l-0.12,2.19l-9.92,1.72c-1.48463,0.70477 -3.04467,1.23821 -4.65,1.59c-1.35,0.29 -2.52,0.43 -3.46,0.54l-0.95,0.12c-1.1,0.28 -2.11,0.47 -2.92,0.62h-0.05c-1.53856,1.08836 -3.22145,1.95673 -5,2.58c-0.85,0.29 -1.64,0.53 -2.34,0.74c-0.7,0.21 -1.36,0.41 -1.79,0.57c-1.71003,0.62277 -3.48442,1.05212 -5.29,1.28v0c-0.81,0.31 -1.55,0.55 -2.18,0.76l-0.76,0.26l-0.34,0.24c-1.12211,0.83234 -2.30173,1.58422 -3.53,2.25c-0.19,0.11 -0.77,0.48 -1.19,0.75c-0.69,0.44 -1.52,1 -2.52,1.55c-1.24,0.71 -2.6,1.49 -3.75,2.2c-1.15,0.71 -2.47,1.55 -3.64,2.38c-1.17,0.83 -2.28,1.39 -3.08,1.83c-0.27,0.15 -0.63,0.34 -0.79,0.44l-1,0.74c-0.8,0.58 -1.57,1.13 -2.22,1.64c-0.13,0.13 -0.33,0.34 -0.48,0.51c-0.87921,0.97019 -1.81413,1.88841 -2.8,2.75c-0.15,0.14 -0.6,0.6 -0.92,0.94c-0.6,0.63 -1.35,1.42 -2.22,2.22l-6.71,6.19l-2.32,-1c-1.23669,0.88615 -2.58074,1.61194 -4,2.16c-0.4,0.48 -0.81,0.96 -1.23,1.44c-0.24,0.28 -0.82,1.11 -1.15,1.57c-0.33,0.46 -0.66,0.93 -1,1.39c-0.52,0.69 -1.02,1.37 -1.45,2c-0.37391,1.78249 -0.98255,3.50753 -1.81,5.13c-0.72341,1.37457 -1.55609,2.6888 -2.49,3.93l1.11,2.25l-3.17,6.12c-0.2,0.37 -0.42,0.95 -0.72,1.6c-0.3,0.65 -0.7,1.54 -1,2.21c-0.3,0.67 -0.64,1.49 -1,2.35l-0.51,1.23c-0.04,0.16 -0.09,0.38 -0.14,0.56c-0.29683,1.29014 -0.67764,2.55951 -1.14,3.8c-0.07,0.14 -0.22,0.74 -0.33,1.14c-0.21,0.8 -0.48,1.79 -0.86,2.89c-0.61125,1.79138 -1.49496,3.47785 -2.62,5c-0.14441,0.95931 -0.33799,1.91055 -0.58,2.85c-0.25,0.99 -0.52,1.85 -0.76,2.61l-0.09,0.28c0.18618,1.83049 0.11888,3.67791 -0.2,5.49c-0.23,1.28 -0.54,2.44 -0.79,3.36c-0.1,0.36 -0.24,0.89 -0.29,1.12l-1.49,10.32l-3.41,0.48c-0.03,0.39 -0.06,0.79 -0.11,1.21c-0.13,1.08 -0.2,2.36 -0.27,3.74c-0.07,1.38 -0.07,2.51 -0.07,3.56c0.07266,2.11615 -0.22862,4.22854 -0.89,6.24v0.25c0.1,0.45 0.19,0.9 0.28,1.33c0.06,0.19 0.21,0.58 0.32,0.87c0.24,0.63 0.51,1.36 0.77,2.2l3,0.44l1.61,7.67c1.00801,1.61462 1.76024,3.37544 2.23,5.22c0.04,0.13 0.22,0.64 0.36,1c0.31,0.79 0.67,1.77 1,2.9c0.30194,1.06008 0.51271,2.14402 0.63,3.24c1.02426,1.34664 1.84627,2.8357 2.44,4.42c0.561,1.49215 0.89799,3.05914 1,4.65c0.73108,0.96061 1.35165,2.0005 1.85,3.1c0.23,0.61 0.6,1.33 1,2.1l0.84,1.47c0.6,1.21 1.04,2.32 1.36,3.13c0.08,0.21 0.18,0.48 0.26,0.66l0.5,0.7c0.57,0.83 1.3,1.82 2,3l4.29,7.21l-2.38,4l0.21,0.24l0.86,1c1.19196,0.82011 2.30658,1.74729 3.33,2.77c0.14,0.13 0.49,0.39 0.75,0.59l1.12,0.86l1.66,-0.46l4.88,5c1.64022,0.8723 3.1597,1.95476 4.52,3.22c0.28,0.26 0.7,0.58 1.28,1.07c0.58,0.49 1.27,1.04 2,1.68l1.47,1.31c0.66,0.61 1.24,1.13 1.75,1.55c1.34966,1.07524 2.58004,2.2922 3.67,3.63l0.1,0.12c1.05334,0.87854 2.03634,1.83813 2.94,2.87l0.13,0.14c0.68,0.5 1.47,1.09 1.79,1.38c0.32,0.29 0.71,0.61 1,0.8c0.29,0.19 0.88,0.5 1.45,0.8l1.43,0.77c1.77486,0.46708 3.48963,1.13822 5.11,2c1.2084,0.66865 2.37097,1.41697 3.48,2.24l0.46,0.33c0.88,0.45 1.66,0.89 2.3,1.25l0.47,0.26c1.71092,0.24581 3.38835,0.6853 5,1.31c0.11,0.05 0.63,0.19 1,0.29c0.86,0.23 1.93,0.52 3.12,0.95c1.84545,0.67726 3.58857,1.60602 5.18,2.76l1.2,0.44l0.7,0.25c1.339,-0.01223 2.67676,0.08476 4,0.29c0.44,-0.05 1.04,-0.05 1.7,-0.05c1.30856,-0.00573 2.61461,0.11482 3.9,0.36c2.06722,0.40521 4.04727,1.17015 5.85,2.26c0.73,0.03 1.57,0.08 2.49,0.18c1.30581,0.15915 2.59666,0.42334 3.86,0.79c1.35336,-0.27148 2.7297,-0.41214 4.11,-0.42h0.64c1.21232,0.05397 2.42079,0.17415 3.62,0.36l0.85,0.11c1.22,0 2.34,0.09 3.22,0.17l0.91,0.07l1,-0.14c0.88,-0.14 1.9,-0.29 3.22,-0.39c1.32,-0.1 2.75,-0.25 4.22,-0.42c0.93699,-0.0948 1.87822,-0.14153 2.82,-0.14h0.7c1.45921,-0.68863 2.99736,-1.19574 4.58,-1.51l0.71,-0.24c1.15078,-0.39742 2.32255,-0.73125 3.51,-1c1.34292,-0.29138 2.70751,-0.47199 4.08,-0.54c1.27936,-0.67804 2.61832,-1.23706 4,-1.67c1.68644,-0.507 3.43903,-0.75977 5.2,-0.75h1.05l0.22,-0.09c1.56201,-1.46986 3.36489,-2.6605 5.33,-3.52c0.54,-0.24 1.33,-0.64 1.94,-0.94c0.61,-0.3 1.21,-0.61 1.83,-0.9c1.1,-0.52 2.09,-0.91 2.89,-1.22l1,-0.42c0.16,-0.08 0.69,-0.43 1.08,-0.68c0.65,-0.42 1.45,-0.95 2.38,-1.48l0.71,-0.52c0.69,-0.57 1.65,-1.29 2.79,-2c0.8,-0.49 1.61,-0.94 2.18,-1.27c0.57,-0.33 1.12,-0.64 1.43,-0.85c1.54712,-1.02833 3.22996,-1.8361 5,-2.4l7.23,-5.27l3.52,2.65h0.14l1.18,-0.96c1.02435,-1.45441 2.20101,-2.79534 3.51,-4c0.65,-0.57 1.3,-1.12 1.79,-1.52c0.49,-0.4 1.11,-0.9 1.26,-1.07c0.15,-0.17 0.47,-0.59 0.71,-0.9c0.48,-0.62 1.07,-1.4 1.78,-2.22c1.24608,-1.42814 2.69882,-2.6618 4.31,-3.66c0.26,-0.48 0.55,-1.02 0.89,-1.58v0c0.5066,-1.78746 1.22856,-3.50673 2.15,-5.12c0.66836,-1.13852 1.43103,-2.21897 2.28,-3.23l-2.28,-2.48l4.68,-8.77c0.28,-0.52 0.54,-1 0.8,-1.45c0.39,-0.75 0.68,-1.29 1,-1.94c0.44,-0.91 0.88,-1.71 1.26,-2.41l0.26,-0.47c0.19803,-1.70777 0.59747,-3.38611 1.19,-5c0.04,-0.16 0.15,-0.44 0.15,-0.64c0.25934,-1.2423 0.59328,-2.46786 1,-3.67c0.05,-0.18 0.13,-0.56 0.19,-0.85c0.18,-0.88 0.44,-2.09 0.85,-3.43c0.50942,-1.57464 1.17962,-3.09265 2,-4.53c0.03,-0.2 0.09,-0.41 0.09,-0.59c0.14,-0.83 0.3,-1.86 0.56,-3c0.37171,-1.59934 0.96051,-3.14029 1.75,-4.58c-0.06405,-1.26318 -0.0004,-2.52961 0.19,-3.78c0.25218,-1.56612 0.64717,-3.10587 1.18,-4.6l0.09,-0.26c0.1,-0.75 0.22,-1.41 0.33,-2c-0.60392,-1.94074 -0.88103,-3.96838 -0.82,-6c0.06051,-1.37649 0.22093,-2.74676 0.48,-4.1c0.03,-0.18 0.09,-0.4 0.09,-0.55c0.02,-1.19 0.1,-2.22 0.17,-3.07c0.07,-0.29 0.1,-0.72 0.07,-0.91c-0.03,-0.19 -0.12,-0.44 -0.12,-0.64c-0.27191,-1.29046 -0.46559,-2.59617 -0.58,-3.91c-0.13,-1.15 -0.13,-2.17 -0.13,-3c0,-0.39 0,-0.85 0,-1.18c-0.05,-0.15 -0.15,-0.35 -0.15,-0.5c-0.44178,-1.39234 -0.7761,-2.81652 -1,-4.26l-0.95,-6.07l1.45,-1.81c-0.09,-0.37 -0.09,-0.74 -0.09,-1.13v-0.71c-0.05,-1.09 -0.1,-2.09 -0.21,-3.09c-0.07,-0.61 -0.12,-1.11 -0.19,-1.85c-0.07,-0.74 -0.13,-1.43 -0.21,-1.88c-0.19943,-1.03494 -0.3032,-2.08604 -0.31,-3.14c-0.82043,-1.15455 -1.49237,-2.40773 -2,-3.73c-0.48,-1.24 -0.81,-2.41 -1.05,-3.24c-0.07,-0.27 -0.18,-0.62 -0.24,-0.8c-0.34168,-0.77461 -0.63556,-1.56943 -0.88,-2.38h-3.13l-4.2,-6.18l-0.35,-0.51l-0.24,-0.44l-0.55,-0.75c-0.73759,-0.96406 -1.42516,-1.96538 -2.06,-3c-0.32,-0.53 -0.85,-1.28 -1.25,-1.87c-0.4,-0.59 -0.81,-1.18 -1.21,-1.78c-1.06867,-1.66717 -1.90945,-3.46983 -2.5,-5.36c-0.36476,-0.60258 -0.69853,-1.22339 -1,-1.86c-1.53836,-0.97314 -2.92066,-2.17338 -4.1,-3.56c-0.99833,-1.22243 -1.8915,-2.52708 -2.67,-3.9l-0.17,-0.3c-0.72,-0.83 -1.31,-1.6 -1.8,-2.24c-0.21,-0.28 -0.51,-0.67 -0.64,-0.82c-0.67482,-0.69583 -1.31238,-1.42685 -1.91,-2.19c-1.76869,-0.70914 -3.41532,-1.69105 -4.88,-2.91l-0.52,-0.32c-1.20101,-0.70066 -2.35059,-1.48598 -3.44,-2.35c-1.75179,-1.42473 -3.20031,-3.18608 -4.26,-5.18c-0.63,-0.34 -1.41,-0.84 -2,-1.21c-0.59,-0.37 -1.07,-0.75 -1.59,-1.12l-0.89,-0.63c-2.32007,-1.11216 -4.28881,-2.84216 -5.69,-5c-0.41039,-0.63993 -0.77464,-1.30828 -1.09,-2c-0.76,-0.52 -1.3,-1.01 -1.76,-1.39l-0.42,-0.34l-0.51,-0.27c-1.46,-0.00204 -2.91422,-0.1834 -4.33,-0.54l-0.79,1.65l-11.67,-3.86c-1.03253,-0.33384 -2.03591,-0.75191 -3,-1.25h-0.58c-1.4564,0.00306 -2.90753,-0.17497 -4.32,-0.53c-1.77227,-0.46504 -3.4598,-1.20754 -5,-2.2c-0.81483,-0.05596 -1.62603,-0.1561 -2.43,-0.3l-11.35,-2.06l-0.06,-4.52c-0.99365,0.14436 -1.99595,0.2212 -3,0.23h-0.56h-0.1c-1.50153,0.27479 -3.02364,0.42198 -4.55,0.44c-2.03959,-0.02198 -4.06352,-0.3593 -6,-1M231.97,46.81c0.94,0 2,0.13 3,0.13c0.29314,0.01517 0.58686,0.01517 0.88,0h0.28c1.55,0 3.27,1.08 4.76,1.08c1.49,0 2.93,-0.49 4.34,-0.49h0.47h0.4c1.37,0 2.76,-0.54 4,-0.54c0.18772,0.00131 0.37501,0.01803 0.56,0.05c1.77,0.23 3.41,0.68 4.77,1c2.87,0.66 2.26,1.29 4.36,2.28c2.1,0.99 3.29,2.03 3.29,3.73c1.41,0.27 2.98,0.12 4.41,0.42c1.43,0.3 2.56,1.93 4,2.3c0.28174,0.06605 0.57069,0.09629 0.86,0.09c0.91,0 1.89,-0.25 2.8,-0.25c0.31753,-0.00643 0.63427,0.03401 0.94,0.12c1.43,0.42 2.78,1.62 4.18,2.08c0.43147,-0.77822 1.29947,-1.20824 2.18,-1.08h0.53c2.25,0.33 1.9,-0.1 4.51,0.64c1.3,0.37 2.49,1.72 4.05,2.27c0.41316,0.13305 0.84616,0.19393 1.28,0.18c0.62,0 1.29,-0.08 1.93,-0.08c0.53319,-0.02052 1.06473,0.07147 1.56,0.27c1.41,0.62 2.78,1.32 4,2c1.41,0.79 2.49,1.95 3.56,2.65c2.22,1.45 1.64,1.47 3.29,2.92c1.09,1.07 1.46,1.77 1.09,2.59c-0.05,0.09 0,0.09 0,0.09h0.12c0.06467,-0.00564 0.12805,0.02046 0.17,0.07c1.39,0.88 2.64,1.82 4,2.76c1.36,0.94 3.09,1.41 4.42,2.4c1.33,0.99 1.4,3.6 2.69,4.64c1.29,1.04 2.87,1.73 4.11,2.8c1.24,1.07 3.5,1.03 4.73,2.17c1.23,1.14 2.07,2.66 3.23,3.84c1.16,1.18 2.04,2.63 3.16,3.86c1.12,1.23 1.74,2.88 2.8,4.15c1.06,1.27 3.29,1.6 4.31,2.91c1.02,1.31 1.3,3.22 2.24,4.56c0.94,1.34 1.09,3.24 2,4.62c0.91,1.38 1.92,2.68 2.75,4.1c0.83,1.42 2.02,2.67 2.83,4.12v0c0.15503,-0.03798 0.30579,-0.09159 0.45,-0.16c0.2634,-0.07611 0.53584,-0.11647 0.81,-0.12c1.21,0 2.11,0.89 3.38,2.35c1.51,1.99 2.02,1.02 3.44,3.69c0.69,1.34 0.52,3.32 1.3,5c0.66,1.44 0.97,3.18 1.56,4.72c0.59,1.54 2.69,2.64 3.14,4.23c0.45,1.59 -0.48,3.34 -0.17,5c0.31,1.66 0.38,3.23 0.55,4.73c0.21,1.75 0.26,3.36 0.33,4.75c0.14,2.95 1.71,2.43 1.48,4.83c-0.2,1.18 -1.5,2.01 -2.05,2.7c0.24,1.65 1.05,3.35 1.24,5c0.19,1.65 0.11,3.31 0.24,5c0.13,1.69 0.68,3.35 0.74,5c0.06,1.65 -0.24,3.38 -0.24,5c0,1.62 -0.52,3.2 -0.58,4.81c-0.06,1.61 1.25,3.29 1.13,4.9c-0.12,1.61 -0.63,3.2 -0.81,4.8c-0.18,1.6 -1.01,3.12 -1.25,4.71c-0.24,1.59 0.41,3.34 0.14,4.93c-0.27,1.59 -1.91,2.88 -2.27,4.46c-0.36,1.58 -0.51,3.18 -0.9,4.74c-0.39,1.56 -1.52,2.88 -2,4.42c-0.48,1.54 -0.64,3.14 -1.17,4.66c-0.53,1.52 -0.69,3.17 -1.27,4.67c-0.58,1.5 -0.35,3.34 -1,4.82c-0.65,1.48 -1.52,2.88 -2.23,4.32c-0.71,1.44 -1.3,2.44 -2.06,3.86c1.28,1.42 1.01,3.57 0.28,6.18c-0.51105,1.63995 -1.22668,3.20897 -2.13,4.67c-0.69,1.31 -2.11,2.48 -3.11,4.12c-0.86,1.38 -1.09,3.43 -2,4.82c-0.91,1.39 -1.61,3.1 -2.62,4.46c-1.01,1.36 -3.14,1.9 -4.26,3.17c-1.12,1.27 -1.92,2.58 -3.12,3.8c-1.2,1.22 -2.41,2.06 -3.71,3.22c-1.3,1.16 -2.06,2.79 -3.25,3.79c-1.45,1.14 -2.78,2.18 -3.93,3c-2.48,1.77 -2.48,0.59 -4.69,1.69c-1.32056,0.71305 -2.76763,1.16144 -4.26,1.32c-0.64459,0.01011 -1.27306,-0.20173 -1.78,-0.6c-1.26,0.93 -2.99,0.98 -4.26,1.86c-1.27,0.88 -2.66,1.58 -4,2.41c-1.34,0.83 -2.53,1.91 -3.87,2.69c-1.34,0.78 -2.66,1.75 -4,2.48c-1.34,0.73 -2.92,1.17 -4.34,1.85c-1.42,0.68 -2.81,1.43 -4.25,2.05c-1.44,0.62 -2.44,2.37 -3.91,2.94c-1.47,0.57 -2.92,1.28 -4.42,1.8c-0.39108,0.12351 -0.80002,0.18097 -1.21,0.17c-0.84,0 -1.75,-0.17 -2.6,-0.17c-0.38153,-0.0096 -0.76236,0.03758 -1.13,0.14c-1.5,0.46 -2.84,1.53 -4.36,1.93c-1.52,0.4 -3.19,0.22 -4.74,0.55c-1.55,0.33 -3.02,1.04 -4.55,1.33c-1.53,0.29 -2.96,1.48 -4.53,1.71c-0.51662,0.07374 -1.0382,0.10718 -1.56,0.1h-1.93c-0.4308,-0.00496 -0.86152,0.01507 -1.29,0.06c-1.56,0.17 -3.17,0.35 -4.73,0.46c-1.56,0.11 -3.15,0.51 -4.73,0.56h-0.42c-1.43,0 -2.9,-0.24 -4.34,-0.24c-1.62,0 -3.24,-0.42 -4.85,-0.48h-0.17c-1.42,0 -2.97,0.66 -4.42,0.66h-0.33c-1.61,-0.11 -3.18,-0.93 -4.79,-1.11c-1.61,-0.18 -3.27,-0.02 -4.87,-0.31c-1.6,-0.29 -2.94,-1.99 -4.52,-2.29c-0.42227,-0.07675 -0.85083,-0.11357 -1.28,-0.11c-0.72,0 -1.46,0.07 -2.18,0.07c-0.48381,0.00941 -0.96707,-0.03756 -1.44,-0.14c-0.73832,-0.13754 -1.48938,-0.19454 -2.24,-0.17h-0.28c-0.80623,0.03388 -1.61337,-0.04011 -2.4,-0.22c-1.62,-0.42 -3.07,-1.1 -4.62,-1.57c-1.55,-0.47 -2.78,-1.93 -4.3,-2.47c-1.52,-0.54 -3.12,-0.82 -4.63,-1.42c-1.51,-0.6 -3.33,-0.46 -4.81,-1.12c-1.48,-0.66 -2.86,-1.58 -4.31,-2.29c-1.45,-0.71 -2.66,-1.89 -4.09,-2.66c-1.43,-0.77 -3.24,-0.86 -4.64,-1.68c-1.4,-0.82 -2.91,-1.51 -4.27,-2.38c-1.36,-0.87 -2.58,-2.01 -3.91,-2.93c-1.33,-0.92 -2.26,-2.44 -3.55,-3.41c-1.29,-0.97 -2.11,-2.51 -3.37,-3.53c-1.26,-1.02 -2.4,-2.1 -3.62,-3.2c-1.22,-1.1 -2.53,-1.98 -3.7,-3.1c-1.17,-1.12 -2.86,-1.52 -4,-2.68c-0.32608,0.08872 -0.66209,0.13576 -1,0.14c-0.60503,-0.0006 -1.20132,-0.14453 -1.74,-0.42c-1.94,-1.23 -1,-1.87 -3,-3.66c-1.03,-0.92 -2.51,-1.86 -3.54,-2.92c-1.03,-1.06 -2.59,-1.77 -3.59,-3c-1.00115,-1.12218 -1.94566,-2.29364 -2.83,-3.51c-0.85,-1.4 -1.54,-2.84 -2.1,-4c-1.16,-2.39 -1.29,-2.05 -1.92,-4.17c-0.24,-1.14 1.69,-2.46 2.1,-3.14c-0.77,-1.33 -2.02,-2.73 -2.77,-4.09c-0.75,-1.36 -1.15,-2.89 -1.85,-4.27c-0.7,-1.38 -1.44,-2.73 -2.08,-4.14c-0.64,-1.41 -2.83,-2.18 -3.42,-3.61c-0.59,-1.43 0.76,-3.62 0.22,-5.08c-0.54,-1.46 -2.49,-2.42 -2.94,-3.9c-0.45,-1.48 0.02,-3.25 -0.45,-4.74c-0.47,-1.49 -1.1,-2.92 -1.47,-4.42c-0.37,-1.5 -1.62,-2.29 -1.94,-3.82c-1.39,-0.2 -1.66,-1.91 -2.58,-3.68c-1,-2.29 -1.24,-1.67 -2,-4.6c-0.36,-1.42 -1.2,-3.01 -1.56,-4.83c-0.3,-1.56 -0.72,-3.41 -0.94,-5c-0.22,-1.59 1.24,-3.47 1.18,-5.12c-0.06,-1.65 0,-3.06 0.08,-4.76c0.08,-1.7 0.17,-3.26 0.35,-4.76c0.22,-1.82 -0.04,-3.45 0.22,-4.82c0.24989,-1.57261 0.7142,-3.10353 1.38,-4.55c0.84,-1.94 1.94,-2.78 3.46,-3c0.23,-1.57 0.84,-3.35 1.16,-4.91c0.32,-1.56 -0.32,-3.27 0,-4.83c0.32,-1.56 0.93,-3.03 1.32,-4.56c0.39,-1.53 0.4,-3.15 0.85,-4.69c0.45,-1.54 2.12,-2.58 2.64,-4.1c0.52,-1.52 0.81,-3.04 1.37,-4.52c0.56,-1.48 0.73,-3.09 1.35,-4.55c0.62,-1.46 1.19,-2.93 1.87,-4.36c0.68,-1.43 1.21,-2.88 1.94,-4.28c-0.52694,-1.09718 -0.68817,-2.33442 -0.46,-3.53c0.67,-2.41 1.07,-1.74 2.29,-4.51c0.59,-1.33 1.89,-2.58 2.74,-4.22c0.72,-1.41 0.67,-3.47 1.52,-4.88c0.85,-1.41 1.87,-2.82 2.85,-4.15c0.98,-1.33 1.78,-2.58 2.89,-3.9c1.11,-1.32 2.12,-2.64 3.19,-3.71c1.28,-1.26 3.52,-1.28 4.52,-2.2c2.23,-1.93 1.35,-2.13 3.35,-3.41c0.86766,-0.53095 1.85416,-0.83687 2.87,-0.89c0.47828,0.00068 0.95135,0.09937 1.39,0.29c1.2,-1.08 2.3,-2.48 3.54,-3.54c1.24,-1.06 2.22,-2.44 3.5,-3.45c1.28,-1.01 2.63,-1.95 3.94,-2.91c1.31,-0.96 2.87,-1.6 4.22,-2.51c1.35,-0.91 2.7,-1.83 4.09,-2.67c1.39,-0.84 2.8,-1.63 4.21,-2.44c1.41,-0.81 2.74,-1.81 4.18,-2.56c1.44,-0.75 2.64,-1.9 4.11,-2.61c1.47,-0.71 3.12,-1.08 4.61,-1.71c1.49,-0.63 3.3,-0.51 4.82,-1.09c1.52,-0.58 3.1,-0.97 4.64,-1.48c1.54,-0.51 2.79,-2.08 4.34,-2.51c1.55,-0.43 3.21,-0.6 4.79,-1c1.58,-0.4 3.27,-0.42 4.85,-0.76c1.58,-0.34 2.5,-1.23 4.11,-1.51c0.08,-1.62 1.57,-2.84 3.57,-3.84c0.3711,-0.15524 0.76786,-0.24002 1.17,-0.25c1.03,0 1.54,0.7 2.94,0.7c0.39327,-0.00563 0.78509,-0.04917 1.17,-0.13c1.42,-0.32 2.72,-2.64 4.55,-2.92c0.39372,-0.0609 0.7916,-0.09099 1.19,-0.09z" fill="#8c8c8c" stroke-width="1"/><path d="M270.18633,90.11599c0.63456,0.24488 1.31626,0.60878 1.99132,0.86929c0.19393,0.08661 0.39222,0.16313 0.59405,0.22925l0.18902,0.07294c1.04635,0.40379 1.9261,1.58094 2.93194,1.9691c1.00584,0.38816 2.10558,0.43252 3.05742,0.79984l0.31728,0.12244l0.27002,0.1042c0.92484,0.3569 2.00385,0.35448 2.84092,0.67751c0.12638,0.04979 0.24846,0.10987 0.36501,0.17964c1.13494,0.61637 2.12481,1.34738 2.95954,1.9177c1.76549,1.19321 1.18958,1.45958 2.34931,2.67497c1.15972,1.21538 1.69212,2.22746 1.24925,3.37506c0.8815,0.54959 1.98042,0.85733 2.86761,1.43238c0.88719,0.57505 1.22537,1.96978 2.10107,2.59469c0.17298,0.11799 0.36017,0.21367 0.55711,0.28479c0.61431,0.23706 1.341,0.3236 1.9553,0.56066c0.21603,0.07838 0.41931,0.18819 0.6033,0.32589c0.85592,0.65606 1.45465,1.81782 2.2799,2.49306c0.494,-0.41294 1.19198,-0.47711 1.75299,-0.16115l0.35778,0.13807c1.43292,0.80892 1.30867,0.42746 2.8778,1.60694c0.78119,0.58844 1.23283,1.80978 2.14264,2.58746c0.24425,0.19745 0.52069,0.35135 0.81719,0.45496c0.41854,0.16152 0.89167,0.28205 1.32371,0.44878c0.36528,0.12505 0.70014,0.32562 0.98276,0.58866c0.79032,0.78586 1.5328,1.6153 2.17923,2.39217c0.74603,0.90062 1.17291,1.96504 1.71287,2.71633c1.1209,1.55717 0.72415,1.41958 1.46026,2.82826c0.45707,1.00627 0.52449,1.57521 0.0611,2.03237c-0.0572,0.04773 -0.02345,0.06076 -0.02345,0.06076l0.08101,0.03126c0.04513,0.01304 0.08111,0.04717 0.09652,0.09154c0.70909,0.95616 1.30803,1.91636 1.98124,2.90521c0.6732,0.98885 1.71862,1.75682 2.35855,2.77161c0.63993,1.01479 0.00725,2.79494 0.60715,3.83306c0.5999,1.03812 1.48675,1.91552 2.04508,2.96087c0.55833,1.04535 2.09439,1.6071 2.62774,2.6971c0.53334,1.09 0.70442,2.33492 1.18009,3.43369c0.47567,1.09877 0.69198,2.30685 1.12763,3.42895c0.43564,1.1221 0.42434,2.39747 0.80906,3.53094c0.38472,1.13347 1.80414,1.93718 2.15143,3.08723c0.34729,1.15005 0.03874,2.51236 0.32421,3.66183c0.28547,1.14946 -0.10824,2.47116 0.14657,3.63981c0.2548,1.16865 0.59795,2.30935 0.78833,3.48416c0.19038,1.17481 0.66806,2.32865 0.83712,3.5185c0.11455,0.01475 0.23029,0.01784 0.34546,0.00922c0.19764,0.01724 0.39207,0.06097 0.57806,0.13001c0.81683,0.31522 1.19253,1.15048 1.66951,2.46692c0.50093,1.73674 1.0979,1.21479 1.36093,3.38714c0.11671,1.08434 -0.51386,2.37667 -0.42497,3.71397c0.07041,1.14403 -0.17361,2.39939 -0.17651,3.59269c-0.0029,1.1933 1.12817,2.48294 1.01774,3.67352c-0.11043,1.19058 -1.19414,2.12966 -1.41731,3.33102c-0.22318,1.20136 -0.58493,2.27944 -0.86093,3.33632c-0.31413,1.23607 -0.6998,2.33594 -1.01465,3.29251c-0.674,2.0279 0.52132,2.08587 -0.25917,3.64611c-0.44241,0.74447 -1.53622,0.96611 -2.08726,1.28862c-0.26783,1.17638 -0.1639,2.53499 -0.46548,3.69834c-0.30158,1.16335 -0.78803,2.26311 -1.14054,3.43783c-0.3525,1.17472 -0.41367,2.43861 -0.80301,3.56809c-0.38934,1.12948 -1.04254,2.21919 -1.46457,3.31279c-0.42203,1.0936 -1.18467,2.02473 -1.64459,3.09595c-0.45993,1.07122 -0.01325,2.54659 -0.51368,3.60218c-0.50043,1.05559 -1.25892,1.99608 -1.79725,3.02928c-0.53833,1.03321 -1.49461,1.84308 -2.07083,2.8539c-0.57623,1.01083 -0.59333,2.36152 -1.18981,3.36453c-0.59648,1.00301 -2.03964,1.4466 -2.69427,2.41942c-0.65463,0.97281 -1.17271,2.01384 -1.84238,2.96533c-0.66967,0.9515 -1.77636,1.5482 -2.50158,2.46275c-0.72522,0.91455 -1.25004,1.95297 -2.0038,2.84099c-0.75376,0.88802 -1.29161,1.96019 -2.07391,2.82169c-0.7823,0.8615 -1.10638,2.16353 -1.93072,2.99329c-0.82435,0.82976 -1.77636,1.5482 -2.63079,2.33533c-0.85443,0.78713 -1.51323,1.30849 -2.3962,2.06909c0.49415,1.29204 -0.24821,2.67309 -1.42094,4.24483c-0.77221,0.97393 -1.66406,1.84669 -2.65447,2.59765c-0.80706,0.70458 -2.07045,1.12448 -3.17275,1.97107c-0.94006,0.70755 -1.62937,2.03151 -2.60579,2.73278c-0.97642,0.70127 -1.89443,1.67327 -2.93054,2.32824c-1.03611,0.65497 -2.61467,0.46461 -3.70158,1.03017c-1.08692,0.56556 -1.96824,1.24148 -3.09613,1.75244c-1.1279,0.51096 -2.16355,0.7628 -3.34332,1.20721c-1.17977,0.44441 -2.11745,1.34677 -3.18129,1.71183c-1.27582,0.39183 -2.44459,0.74742 -3.43453,1.00138c-2.13526,0.54879 -1.82786,-0.24778 -3.6063,-0.08094c-1.07722,0.13734 -2.17089,0.06305 -3.21964,-0.21869c-0.43777,-0.1611 -0.80684,-0.46783 -1.0453,-0.86875c-1.09285,0.29956 -2.27374,-0.11737 -3.36031,0.14584c-1.08658,0.26321 -2.20727,0.37364 -3.32808,0.58486c-1.12081,0.21122 -2.20548,0.63028 -3.31326,0.80774c-1.10778,0.17746 -2.25156,0.4884 -3.34631,0.63211c-1.09476,0.14371 -2.27598,0.02913 -3.41171,0.11825c-1.13574,0.08912 -2.26945,0.2333 -3.40306,0.27671c-1.13361,0.0434 -2.26456,0.96425 -3.40539,0.96609c-1.14083,0.00183 -2.30463,0.10339 -3.45269,0.06366c-0.29618,-0.0185 -0.58721,-0.08625 -0.86111,-0.20046c-0.56705,-0.21883 -1.13707,-0.57065 -1.71087,-0.79209c-0.25505,-0.10587 -0.52443,-0.17323 -0.79929,-0.19987c-1.13243,-0.08024 -2.31576,0.293 -3.44606,0.16704c-1.1303,-0.12595 -2.21076,-0.68251 -3.34308,-0.86354c-1.13231,-0.18102 -2.30962,-0.08468 -3.41801,-0.28749c-1.10839,-0.20281 -2.38374,0.22798 -3.5035,-0.02576c-0.36796,-0.0848 -0.72877,-0.19811 -1.07915,-0.33889l-1.30287,-0.50279c-0.28952,-0.11558 -0.58551,-0.21426 -0.88646,-0.29555c-1.09738,-0.29164 -2.23113,-0.58955 -3.31288,-0.92169c-1.08175,-0.33214 -2.25931,-0.47633 -3.33893,-0.85418l-0.28353,-0.10941c-0.96534,-0.37253 -1.89516,-0.9175 -2.86725,-1.29263c-1.0936,-0.42203 -2.07779,-1.12758 -3.14901,-1.58751l-0.11476,-0.04429c-0.95859,-0.36992 -2.17687,-0.32818 -3.15571,-0.70592l-0.22277,-0.08597c-1.05819,-0.49368 -1.90442,-1.45623 -2.94438,-1.99716c-1.03996,-0.54093 -2.20224,-0.86537 -3.20679,-1.47796c-1.00455,-0.61258 -1.46627,-2.10927 -2.45471,-2.7234c-0.26507,-0.16181 -0.54477,-0.29832 -0.83542,-0.40771c-0.48604,-0.18757 -1.00383,-0.33309 -1.48987,-0.52066c-0.32905,-0.11968 -0.64304,-0.27729 -0.93562,-0.46964c-0.46258,-0.28518 -0.95475,-0.51932 -1.46785,-0.6983l-0.18902,-0.07294c-0.55308,-0.18716 -1.07867,-0.44738 -1.56284,-0.77374c-0.98419,-0.70555 -1.78588,-1.54234 -2.70979,-2.26341c-0.92391,-0.72107 -1.37389,-2.02709 -2.25931,-2.7876c-0.88542,-0.76051 -1.89258,-1.36634 -2.75561,-2.16475c-0.86304,-0.79841 -2.12812,-1.17803 -2.95528,-2.00913c-0.82715,-0.8311 -1.51907,-1.81166 -2.31295,-2.66869c-0.79388,-0.85703 -1.3033,-1.96883 -2.06805,-2.86115c-0.76475,-0.89233 -1.96316,-1.42461 -2.69463,-2.34287c-0.73147,-0.91827 -1.57106,-1.77743 -2.2625,-2.71903c-0.69144,-0.9416 -1.21803,-2.02899 -1.8762,-2.99653c-0.65816,-0.96754 -0.88999,-2.23591 -1.50813,-3.22677c-0.61813,-0.99087 -0.7705,-2.24408 -1.35536,-3.26089c-0.58486,-1.01681 -1.07308,-2.04286 -1.61009,-3.10325c-0.53701,-1.06039 -1.1921,-1.99571 -1.69015,-3.05658c-0.49805,-1.06087 -1.5347,-1.77115 -2.00208,-2.85121c-0.24324,-0.02506 -0.48232,-0.08083 -0.71153,-0.166c-0.40828,-0.15802 -0.77331,-0.41052 -1.06519,-0.73681c-0.98919,-1.33572 -0.18791,-1.52288 -1.07172,-3.25226c-0.45564,-0.88938 -1.20986,-1.9095 -1.62903,-2.89339c-0.41917,-0.98389 -1.28731,-1.86958 -1.64194,-2.96042c-0.3835,-1.01835 -0.71592,-2.05521 -0.99603,-3.10671c-0.20909,-1.16652 -0.29975,-2.31836 -0.37559,-3.24732c-0.16045,-1.91559 -0.33678,-1.71994 -0.20979,-3.31519c0.13497,-0.83209 1.78171,-1.22039 2.23563,-1.57262c-0.17332,-1.09843 -0.65243,-2.36915 -0.80443,-3.48262c-0.152,-1.11347 -0.02345,-2.25052 -0.13648,-3.36446c-0.11304,-1.11394 -0.2609,-2.21805 -0.32562,-3.33662c-0.06472,-1.11856 -1.34251,-2.20888 -1.36827,-3.32792c-0.02576,-1.11904 1.4561,-2.24574 1.47191,-3.372c0.01581,-1.12627 -1.05047,-2.28232 -0.96869,-3.39864c0.08178,-1.11632 0.86016,-2.18874 0.93104,-3.31702c0.07088,-1.12828 0.01812,-2.25774 0.15912,-3.36673c0.14099,-1.10898 -0.49703,-1.96792 -0.31447,-3.08413c-0.88623,-0.49712 -0.62303,-1.72182 -0.78298,-3.15635c-0.07849,-1.8064 -0.40202,-1.45039 -0.15178,-3.62631c0.1269,-1.05237 -0.02594,-2.34455 0.20517,-3.66695c0.20388,-1.13125 0.4023,-2.48953 0.66799,-3.62019c0.2657,-1.13066 1.74105,-2.01943 2.13039,-3.14892c0.38934,-1.12948 0.79716,-2.06569 1.29404,-3.19245c0.49687,-1.12676 0.96402,-2.15642 1.4763,-3.12212c0.62264,-1.1713 0.87176,-2.33938 1.40417,-3.19649c0.57837,-0.99651 1.29064,-1.90902 2.11691,-2.71203c1.07244,-1.09079 2.03384,-1.37128 3.11725,-1.12382c0.56427,-0.99993 1.43976,-2.04263 2.06218,-3.01236c0.62242,-0.96973 0.63585,-2.29082 1.25827,-3.26055c0.62242,-0.96973 1.41715,-1.80316 2.07901,-2.73441c0.66186,-0.93125 1.09063,-2.02224 1.7956,-2.94461c0.70496,-0.92237 2.10325,-1.18938 2.85026,-2.08001c0.74701,-0.89063 1.33875,-1.84118 2.10234,-2.69438c0.76359,-0.85321 1.29777,-1.89577 2.09666,-2.71984c0.79888,-0.82407 1.56662,-1.66792 2.39819,-2.45612c0.83157,-0.78819 1.5671,-1.62896 2.42461,-2.38388c-0.06989,-0.87794 0.14359,-1.75515 0.60907,-2.5028c1.08012,-1.45236 1.1756,-0.89586 2.72079,-2.44796c0.74477,-0.74413 1.94798,-1.2493 2.94902,-2.13496c0.85336,-0.76427 1.35626,-2.16792 2.29739,-2.89833c0.94112,-0.7304 1.99701,-1.41652 3.00505,-2.05905c1.00804,-0.64253 1.87373,-1.27795 2.96692,-1.87987c1.09319,-0.60192 2.11888,-1.22988 3.11994,-1.67345c1.19232,-0.51712 2.70967,0.05292 3.6244,-0.30763c2.00817,-0.72193 1.46622,-1.08619 3.1498,-1.42925c0.72405,-0.13239 1.46969,-0.08191 2.16928,0.14686c0.32269,0.12506 0.61633,0.31492 0.86279,0.55788c1.09143,-0.41645 2.19871,-1.07498 3.31193,-1.46751c1.11322,-0.39253 2.13428,-1.06882 3.26148,-1.41718c1.1272,-0.34836 2.28341,-0.63123 3.41783,-0.93802c1.13442,-0.30679 2.35425,-0.33243 3.50264,-0.59505c1.1484,-0.26262 2.2994,-0.53199 3.45657,-0.73693c1.15717,-0.20494 2.31481,-0.37092 3.47766,-0.5504c1.16285,-0.17948 2.32119,-0.50806 3.48867,-0.63922c1.16747,-0.13116 2.27713,-0.59487 3.45444,-0.69121c1.1773,-0.09634 2.38755,0.08373 3.55751,0.0466c1.16996,-0.03713 2.36057,0.5154 3.53776,0.51984c1.17719,0.00444 2.34539,0.15277 3.51784,0.20968c1.17246,0.0569 2.42529,-0.6773 3.58365,-0.56379c1.15837,0.11351 2.32326,0.4312 3.49406,0.57278c1.1708,0.14158 2.31687,0.56834 3.47204,0.75043c1.15517,0.18209 2.00808,-0.17905 3.16788,0.05135c0.47603,-1.07276 1.7997,-1.50817 3.41033,-1.66222c0.29096,-0.00812 0.58088,0.03801 0.85495,0.13603c0.69531,0.26833 0.85724,0.87373 1.80233,1.23844c0.26695,0.09865 0.54279,0.17133 0.82369,0.21704c1.04195,0.15391 2.52392,-1.07358 3.83222,-0.78586c0.28165,0.06146 0.55808,0.14479 0.82677,0.24925z" fill="#626262" stroke-width="0.5"/><path d="M219.87115,237.412c-0.40504,-0.16249 -0.83933,-0.40174 -1.27023,-0.5746c-0.12369,-0.05721 -0.25025,-0.10798 -0.37919,-0.15212l-0.12065,-0.0484c-0.66789,-0.26793 -1.22235,-1.03062 -1.86439,-1.28819c-0.64204,-0.25756 -1.34724,-0.29534 -1.95481,-0.53908l-0.20252,-0.08124l-0.17236,-0.06914c-0.59033,-0.23682 -1.28263,-0.24441 -1.81694,-0.45876c-0.08066,-0.03302 -0.15848,-0.0726 -0.23266,-0.11835c-0.72293,-0.40507 -1.35182,-0.88246 -1.88253,-1.25544c-1.12259,-0.7805 -0.75084,-0.94652 -1.4846,-1.73612c-0.73375,-0.7896 -1.06675,-1.44344 -0.77289,-2.17596c-0.5609,-0.36008 -1.26334,-0.56683 -1.82766,-0.94329c-0.56433,-0.37646 -0.76948,-1.27416 -1.32602,-1.68251c-0.10998,-0.07716 -0.22926,-0.14014 -0.35501,-0.18744c-0.39212,-0.1573 -0.85761,-0.21898 -1.24973,-0.37629c-0.13793,-0.05212 -0.26743,-0.12429 -0.3843,-0.2142c-0.54358,-0.42817 -0.91787,-1.17861 -1.44161,-1.61883c-0.32044,0.26075 -0.76879,0.296 -1.12605,0.08853l-0.22838,-0.09162c-0.91248,-0.53113 -0.83599,-0.28535 -1.83272,-1.05538c-0.49621,-0.38415 -0.77562,-1.17157 -1.35275,-1.67823c-0.15503,-0.12875 -0.33109,-0.22983 -0.52043,-0.29882c-0.26716,-0.10717 -0.56969,-0.18852 -0.84547,-0.29915c-0.2333,-0.08332 -0.44643,-0.21485 -0.62553,-0.386c-0.5004,-0.51089 -0.96972,-1.04934 -1.37787,-1.55324c-0.47101,-0.58414 -0.73586,-1.27068 -1.07592,-1.75727c-0.70595,-1.00855 -0.45257,-0.91691 -0.9129,-1.82694c-0.28472,-0.64948 -0.32315,-1.01507 -0.02197,-1.30444c0.0371,-0.03014 0.01556,-0.03878 0.01556,-0.03878l-0.05171,-0.02074c-0.02884,-0.00875 -0.05164,-0.03095 -0.06115,-0.05955c-0.44683,-0.61947 -0.82297,-1.24059 -1.2465,-1.88072c-0.42353,-0.64014 -1.08774,-1.14171 -1.48971,-1.7982c-0.40196,-0.6565 0.01904,-1.79324 -0.35704,-2.46436c-0.37609,-0.67112 -0.93763,-1.24157 -1.28699,-1.91697c-0.34935,-0.67541 -1.3301,-1.04884 -1.66304,-1.75268c-0.33295,-0.70385 -0.43215,-1.50401 -0.72802,-2.21299c-0.29587,-0.70898 -0.42441,-1.4859 -0.6944,-2.20951c-0.26999,-0.72361 -0.25193,-1.54176 -0.48915,-2.27224c-0.23722,-0.73047 -1.14108,-1.25815 -1.35415,-1.99894c-0.21307,-0.7408 -0.00356,-1.61222 -0.17697,-2.35211c-0.17341,-0.73989 0.09039,-1.58453 -0.06318,-2.33647c-0.15357,-0.75195 -0.36406,-1.4867 -0.47624,-2.24205c-0.11218,-0.75535 -0.40888,-1.49968 -0.50726,-2.2645c-0.07336,-0.01043 -0.1476,-0.0134 -0.22156,-0.00884c-0.12666,-0.01274 -0.25103,-0.04244 -0.36977,-0.08831c-0.52139,-0.20916 -0.75535,-0.74824 -1.05021,-1.59688c-0.30666,-1.11851 -0.6941,-0.78869 -0.84444,-2.18466c-0.06569,-0.69668 0.34983,-1.52047 0.30414,-2.37921c-0.03548,-0.73458 0.13172,-1.53793 0.1437,-2.30351c0.01198,-0.76557 -0.70276,-1.60257 -0.62182,-2.36548c0.08094,-0.76292 0.78418,-1.35623 0.93755,-2.12511c0.15337,-0.76888 0.3946,-1.45749 0.58064,-2.13322c0.21202,-0.79037 0.46878,-1.49276 0.67889,-2.10381c0.44961,-1.29535 -0.31679,-1.34268 0.19719,-2.33707c0.29016,-0.47389 0.9938,-0.60681 1.35007,-0.80906c0.1818,-0.75247 0.12664,-1.62502 0.32999,-2.36884c0.20335,-0.74382 0.52477,-1.44529 0.76089,-2.19598c0.23612,-0.75069 0.28607,-1.56106 0.54544,-2.28241c0.25937,-0.72135 0.68769,-1.41495 0.96772,-2.11301c0.28003,-0.69805 0.77722,-1.28899 1.08138,-1.97237c0.30416,-0.68338 0.03008,-1.63373 0.3601,-2.30674c0.33001,-0.673 0.82462,-1.26998 1.17876,-1.9283c0.35414,-0.65832 0.97453,-1.16982 1.3528,-1.81346c0.37826,-0.64364 0.40069,-1.51008 0.79188,-2.14853c0.39119,-0.63846 1.32086,-0.91082 1.7491,-1.52941c0.42824,-0.61859 0.76945,-1.2821 1.20717,-1.88689c0.43771,-0.60478 1.1528,-0.97824 1.62584,-1.55885c0.47304,-0.58061 0.81856,-1.24239 1.30968,-1.80574c0.49112,-0.56335 0.84529,-1.24668 1.3545,-1.79276c0.50921,-0.54609 0.72817,-1.3787 1.26409,-1.90407c0.53592,-0.52537 1.1528,-0.97824 1.70766,-1.476c0.55486,-0.49776 0.98195,-0.82668 1.55489,-1.30718c-0.30609,-0.83314 0.1819,-1.7129 0.94763,-2.71135c0.50369,-0.61831 1.08328,-1.1707 1.72507,-1.6441c0.52377,-0.4452 1.33789,-0.70389 2.05228,-1.23771c0.60912,-0.44598 1.06259,-1.28956 1.69499,-1.73121c0.63239,-0.44165 1.22961,-1.05748 1.89991,-1.46891c0.6703,-0.41143 1.68146,-0.27593 2.3836,-0.62956c0.70214,-0.35364 1.2733,-0.77983 2.00127,-1.09809c0.72797,-0.31826 1.39456,-0.47106 2.15524,-0.74618c0.76069,-0.27512 1.36993,-0.84612 2.05556,-1.07131c0.82187,-0.24058 1.57473,-0.4588 2.21201,-0.61335c1.37459,-0.334 1.17062,0.17446 2.31305,0.0825c0.69229,-0.07898 1.39333,-0.02205 2.0638,0.1676c0.2795,0.10707 0.51369,0.30699 0.66328,0.56623c0.70369,-0.18293 1.45779,0.09457 2.15715,-0.06509c0.69936,-0.15966 1.41931,-0.22101 2.14019,-0.34703c0.72088,-0.12601 1.42034,-0.38568 2.13257,-0.49015c0.71224,-0.10447 1.4487,-0.29426 2.15229,-0.37718c0.70359,-0.08292 1.46047,0.0006 2.18989,-0.04695c0.72942,-0.04755 1.45802,-0.13045 2.18568,-0.14869c0.72767,-0.01824 1.46107,-0.59945 2.19302,-0.59096c0.73195,0.00849 1.47949,-0.0468 2.21572,-0.01157c0.18987,0.01438 0.37601,0.06031 0.55077,0.13591c0.36196,0.1452 0.72469,0.37576 1.09095,0.52269c0.16274,0.07009 0.335,0.11558 0.51112,0.13501c0.72586,0.06108 1.48823,-0.16835 2.21234,-0.07796c0.72411,0.09039 1.4126,0.45663 2.13753,0.58236c0.72494,0.12574 1.48109,0.07391 2.19049,0.21342c0.7094,0.13951 1.53129,-0.12606 2.24756,0.04622c0.23536,0.05753 0.46588,0.13328 0.68949,0.22657l0.83164,0.33362c0.18477,0.07661 0.37383,0.14243 0.56623,0.19714c0.70159,0.19641 1.42645,0.39716 2.11767,0.61942c0.69122,0.22226 1.44549,0.32475 2.13495,0.57633l0.18098,0.0726c0.61618,0.24719 1.20812,0.60471 1.82861,0.85363c0.69805,0.28003 1.32351,0.74105 2.00689,1.04521l0.07325,0.02939c0.61188,0.24546 1.39386,0.229 2.01866,0.47965l0.1422,0.05704c0.67473,0.32571 1.2095,0.95043 1.87213,1.3063c0.66263,0.35587 1.40558,0.57387 2.04489,0.97541c0.63931,0.40154 0.92285,1.3657 1.55181,1.76809c0.16869,0.10606 0.34699,0.19601 0.53254,0.26866c0.31025,0.12446 0.64121,0.22221 0.95146,0.34667c0.2101,0.07958 0.41022,0.18335 0.5963,0.30924c0.29437,0.18689 0.60814,0.34128 0.93583,0.46046l0.12065,0.0484c0.35326,0.12477 0.68826,0.29617 0.99613,0.50966c0.62545,0.46101 1.13272,1.00467 1.71936,1.47513c0.58665,0.47046 0.86428,1.31218 1.4259,1.80762c0.56162,0.49543 1.20266,0.89266 1.7496,1.41222c0.54694,0.51956 1.35538,0.77384 1.87902,1.31407c0.52364,0.54023 0.95925,1.1752 1.46132,1.73179c0.50207,0.55658 0.81948,1.27421 1.30257,1.85319c0.48308,0.57898 1.24745,0.93064 1.70897,1.52598c0.46151,0.59534 0.9929,1.15368 1.42853,1.76365c0.43563,0.60997 0.76427,1.31209 1.17833,1.93842c0.41406,0.62633 0.55205,1.44206 0.94024,2.08302c0.38819,0.64096 0.47532,1.44629 0.84193,2.10361c0.36662,0.65732 0.67115,1.31976 1.0067,2.00463c0.33555,0.68488 0.74791,1.29052 1.05846,1.97537c0.31055,0.68485 0.96962,1.14935 1.26033,1.84625c0.15584,0.01814 0.30876,0.05595 0.4551,0.11254c0.26061,0.10485 0.49267,0.26994 0.67717,0.48175c0.62332,0.86536 0.10765,0.97864 0.66003,2.09567c0.28479,0.57447 0.76003,1.23535 1.02063,1.87015c0.26059,0.6348 0.81007,1.2104 1.02835,1.91327c0.23742,0.65661 0.4419,1.32465 0.6127,2.00165c0.12426,0.75019 0.17266,1.48996 0.21345,2.0866c0.0867,1.23037 0.20149,1.10633 0.1065,2.12874c-0.09365,0.53271 -1.15345,0.76788 -1.44767,0.99001c0.10189,0.7062 0.3985,1.52553 0.48659,2.2412c0.08808,0.71567 -0.00403,1.44409 0.05905,2.15973c0.06308,0.71564 0.14859,1.42527 0.18063,2.14347c0.03204,0.7182 0.84261,1.42855 0.84964,2.14673c0.00704,0.71817 -0.95324,1.42848 -0.97293,2.15094c-0.01969,0.72246 0.65461,1.4732 0.59269,2.18872c-0.06193,0.71552 -0.57042,1.39696 -0.62545,2.12025c-0.05504,0.72328 -0.03077,1.44837 -0.13062,2.15868c-0.09986,0.7103 0.3022,1.26679 0.17562,1.98138c0.56438,0.32646 0.38513,1.10997 0.4756,2.03169c0.03505,1.15962 0.24563,0.93395 0.06664,2.32786c-0.09034,0.67411 -0.00323,1.50444 -0.16271,2.3509c-0.14039,0.72406 -0.27921,1.59383 -0.45926,2.31698c-0.18005,0.72316 -1.13414,1.28087 -1.39351,2.00223c-0.25937,0.72135 -0.52895,1.31855 -0.85729,2.03725c-0.32834,0.7187 -0.63678,1.37535 -0.97363,1.99058c-0.4094,0.74621 -0.57913,1.49352 -0.92798,2.0389c-0.37952,0.63444 -0.84423,1.21385 -1.38116,1.72204c-0.69731,0.69074 -1.3165,0.86255 -2.00949,0.6946c-0.3705,0.63675 -0.94104,1.29831 -1.34859,1.9152c-0.40755,0.61688 -0.42737,1.46436 -0.83492,2.08124c-0.40755,0.61688 -0.9245,1.14486 -1.35703,1.73672c-0.43253,0.59186 -0.71687,1.28819 -1.17698,1.87399c-0.46011,0.5858 -1.35949,0.74525 -1.8463,1.31033c-0.48681,0.56508 -0.87452,1.16991 -1.37166,1.71084c-0.49714,0.54093 -0.8487,1.20529 -1.36823,1.72723c-0.51953,0.52194 -1.01925,1.05683 -1.55945,1.55547c-0.5402,0.49864 -1.01923,1.03183 -1.57579,1.5089c0.0374,0.56386 -0.107,1.12485 -0.41198,1.60059c-0.7053,0.92265 -0.76184,0.5648 -1.76636,1.5475c-0.48413,0.47111 -1.26038,0.78501 -1.91013,1.34475c-0.55398,0.48311 -0.88853,1.3794 -1.49853,1.84004c-0.61,0.46064 -1.29325,0.89188 -1.94543,1.29558c-0.65218,0.40369 -1.21298,0.80403 -1.91946,1.18094c-0.70648,0.37691 -1.36986,0.77111 -2.01588,1.04721c-0.76935,0.32167 -1.73803,-0.05692 -2.32796,0.16665c-1.29453,0.44616 -0.9499,0.68445 -2.03296,0.89028c-0.46566,0.0788 -0.94362,0.04009 -1.39053,-0.11261c-0.20597,-0.08297 -0.39276,-0.20727 -0.54882,-0.36524c-0.70377,0.25794 -1.41976,0.67105 -2.13731,0.91346c-0.71755,0.24241 -1.37838,0.66764 -2.10451,0.88159c-0.72614,0.21395 -1.47034,0.38563 -2.20077,0.57284c-0.73042,0.18722 -1.51325,0.19333 -2.25227,0.35208c-0.73902,0.15876 -1.47976,0.32182 -2.22392,0.4435c-0.74415,0.12168 -1.48828,0.21835 -2.23586,0.32365c-0.74759,0.10529 -1.49354,0.30629 -2.24368,0.38054c-0.75014,0.07426 -1.46601,0.36236 -2.22216,0.41419c-0.75615,0.05183 -1.5311,-0.07396 -2.28204,-0.06005c-0.75094,0.0139 -1.51013,-0.35068 -2.26535,-0.36351c-0.75522,-0.01283 -1.50346,-0.1179 -2.2552,-0.16434c-0.75174,-0.04645 -1.56176,0.41399 -2.30398,0.33134c-0.74222,-0.08265 -1.4869,-0.29634 -2.23687,-0.3971c-0.74996,-0.10076 -1.48164,-0.38428 -2.22123,-0.51089c-0.73959,-0.12661 -1.28986,0.09785 -2.03201,-0.0598c-0.31451,0.68423 -1.16744,0.95236 -2.20209,1.03754c-0.18674,0.00274 -0.37236,-0.02931 -0.54737,-0.09452c-0.44383,-0.17805 -0.54258,-0.56783 -1.14584,-0.80984c-0.17043,-0.06555 -0.34679,-0.11452 -0.52662,-0.14623c-0.66719,-0.10757 -1.6284,0.66739 -2.46534,0.47171c-0.18018,-0.04182 -0.35683,-0.09763 -0.52833,-0.16692z" fill="#545454" stroke-width="0.5"/></g></g></svg>