<svg version="1.1" xmlns="http://www.w3.org/2000/svg" xmlns:xlink="http://www.w3.org/1999/xlink" width="161.25" height="161.25" viewBox="0,0,161.25,161.25"><defs><radialGradient cx="240" cy="180" r="80.625" gradientUnits="userSpaceOnUse" id="color-1"><stop offset="0" stop-color="#fff3d0"/><stop offset="1" stop-color="#fff3d0" stop-opacity="0"/></radialGradient></defs><g transform="translate(-159.375,-99.375)"><g data-paper-data="{&quot;isPaintingLayer&quot;:true}" fill-rule="nonzero" stroke="none" stroke-width="0.5" stroke-linecap="butt" stroke-linejoin="miter" stroke-miterlimit="10" stroke-dasharray="" stroke-dashoffset="0" style="mix-blend-mode: normal"><path d="M159.375,180c0,-44.52796 36.09704,-80.625 80.625,-80.625c44.52796,0 80.625,36.09704 80.625,80.625c0,44.52796 -36.09704,80.625 -80.625,80.625c-44.52796,0 -80.625,-36.09704 -80.625,-80.625z" fill="url(#color-1)"/><path d="M186.125,180c0,-29.75435 24.12065,-53.875 53.875,-53.875c29.75435,0 53.875,24.12065 53.875,53.875c0,29.75435 -24.12065,53.875 -53.875,53.875c-29.75435,0 -53.875,-24.12065 -53.875,-53.875z" fill="#fff3d0"/><path d="M193.425,180c0,-25.72267 20.85233,-46.575 46.575,-46.575c25.72267,0 46.575,20.85233 46.575,46.575c0,25.72267 -20.85233,46.575 -46.575,46.575c-25.72267,0 -46.575,-20.85233 -46.575,-46.575z" fill="#ffe28c"/><path d="M202.725,180c0,-20.58642 16.68858,-37.275 37.275,-37.275c20.58642,0 37.275,16.68858 37.275,37.275c0,20.58642 -16.68858,37.275 -37.275,37.275c-20.58642,0 -37.275,-16.68858 -37.275,-37.275z" fill="#ffd044"/><path d="M215,180c0,-13.80712 11.19288,-25 25,-25c13.80712,0 25,11.19288 25,25c0,13.80712 -11.19288,25 -25,25c-13.80712,0 -25,-11.19288 -25,-25z" fill="#ffc000"/></g></g></svg>