<svg xmlns="http://www.w3.org/2000/svg" xmlns:xlink="http://www.w3.org/1999/xlink" viewBox="0 0 340 340"><defs><style>.cls-1{fill:url(#radial-gradient);}.cls-2{fill:#42200e;}.cls-3{fill:#542f1f;}.cls-4{fill:#824530;}.cls-5{fill:#8c5f41;}.cls-6{fill:#42362b;}</style><radialGradient id="radial-gradient" cx="170" cy="170" r="170" gradientUnits="userSpaceOnUse"><stop offset="0.76" stop-color="red" stop-opacity="0.3"/><stop offset="0.8" stop-color="red" stop-opacity="0.23"/><stop offset="0.88" stop-color="red" stop-opacity="0.11"/><stop offset="0.95" stop-color="red" stop-opacity="0.03"/><stop offset="1" stop-color="red" stop-opacity="0"/></radialGradient></defs><g id="Layer_2" data-name="Layer 2"><g id="Layer_1-2" data-name="Layer 1"><circle class="cls-1" cx="170" cy="170" r="170"/><circle class="cls-2" cx="170" cy="170" r="108"/><path class="cls-3" d="M170,77a93,93,0,1,1-93,93,93.11,93.11,0,0,1,93-93m0-30A123,123,0,1,0,293,170,123,123,0,0,0,170,47Z"/><path class="cls-4" d="M170,72a98,98,0,1,1-98,98,98.11,98.11,0,0,1,98-98m0-25A123,123,0,1,0,293,170,123,123,0,0,0,170,47Z"/><path class="cls-5" d="M164.91,50.92a19.78,19.78,0,0,0,6,1,27.05,27.05,0,0,0,4.55-.44l.1,0h.56a22.22,22.22,0,0,0,3-.23l.06,4.52,11.35,2.06a22.57,22.57,0,0,0,2.43.3,17.37,17.37,0,0,0,5,2.2,17.57,17.57,0,0,0,4.32.53h.58a19.82,19.82,0,0,0,3,1.25l11.67,3.86.79-1.65a17.83,17.83,0,0,0,4.33.54l.51.27.42.34c.46.38,1,.87,1.76,1.39a16,16,0,0,0,1.09,2,14,14,0,0,0,5.69,5l.89.63c.52.37,1,.75,1.59,1.12s1.37.87,2,1.21A16.9,16.9,0,0,0,240.86,82a29.28,29.28,0,0,0,3.44,2.35l.52.32a18.24,18.24,0,0,0,4.88,2.91,27.5,27.5,0,0,0,1.91,2.19c.13.15.43.54.64.82.49.64,1.08,1.41,1.8,2.24l.17.3a28,28,0,0,0,2.67,3.9,18.05,18.05,0,0,0,4.1,3.56,20.7,20.7,0,0,0,1,1.86,22.2,22.2,0,0,0,2.5,5.36c.4.6.81,1.19,1.21,1.78s.93,1.34,1.25,1.87a35.44,35.44,0,0,0,2.06,3l.55.75.24.44.35.51,4.2,6.18h3.13a20.72,20.72,0,0,0,.88,2.38c.06.18.17.53.24.8.24.83.57,2,1.05,3.24a16.89,16.89,0,0,0,2,3.73,17.18,17.18,0,0,0,.31,3.14c.08.45.14,1.14.21,1.88s.12,1.24.19,1.85c.11,1,.16,2,.21,3.09l0,.71c0,.39,0,.76.09,1.13l-1.45,1.81.95,6.07a28.56,28.56,0,0,0,1,4.26c0,.15.1.35.15.5,0,.33,0,.79,0,1.18,0,.83,0,1.85.13,3a32.74,32.74,0,0,0,.58,3.91c0,.2.09.45.12.64s0,.62-.07.91c-.07.85-.15,1.88-.17,3.07,0,.15-.06.37-.09.55a28.45,28.45,0,0,0-.48,4.1,18.34,18.34,0,0,0,.82,6c-.11.59-.23,1.25-.33,2l-.09.26a26,26,0,0,0-1.18,4.6,18.79,18.79,0,0,0-.19,3.78,18,18,0,0,0-1.75,4.58c-.26,1.14-.42,2.17-.56,3,0,.18-.06.39-.09.59a24.11,24.11,0,0,0-2,4.53c-.41,1.34-.67,2.55-.85,3.43-.06.29-.14.67-.19.85a31.6,31.6,0,0,0-1,3.67c0,.2-.11.48-.15.64a21.79,21.79,0,0,0-1.19,5l-.26.47c-.38.7-.82,1.5-1.26,2.41-.32.65-.61,1.19-1,1.94-.26.45-.52.93-.8,1.45l-4.68,8.77,2.28,2.48a23.61,23.61,0,0,0-2.28,3.23,22.93,22.93,0,0,0-2.15,5.12v0c-.34.56-.63,1.1-.89,1.58a19,19,0,0,0-4.31,3.66c-.71.82-1.3,1.6-1.78,2.22-.24.31-.56.73-.71.9s-.77.67-1.26,1.07-1.14.95-1.79,1.52a25,25,0,0,0-3.51,4L249,259l-.14,0-3.52-2.65-7.23,5.27a20,20,0,0,0-5,2.4c-.31.21-.86.52-1.43.85s-1.38.78-2.18,1.27c-1.14.71-2.1,1.43-2.79,2l-.71.52c-.93.53-1.73,1.06-2.38,1.48-.39.25-.92.6-1.08.68l-1,.42c-.8.31-1.79.7-2.89,1.22-.62.29-1.22.6-1.83.9s-1.4.7-1.94.94a18.73,18.73,0,0,0-5.33,3.52l-.22.09-1.05,0a17.72,17.72,0,0,0-5.2.75,23.63,23.63,0,0,0-4,1.67,25.1,25.1,0,0,0-4.08.54,33.21,33.21,0,0,0-3.51,1l-.71.24a19.74,19.74,0,0,0-4.58,1.51h-.7a27.57,27.57,0,0,0-2.82.14c-1.47.17-2.9.32-4.22.42s-2.34.25-3.22.39l-1,.14-.91-.07c-.88-.08-2-.17-3.22-.17l-.85-.11a33.31,33.31,0,0,0-3.62-.36H165a21.52,21.52,0,0,0-4.11.42,24.47,24.47,0,0,0-3.86-.79c-.92-.1-1.76-.15-2.49-.18a18,18,0,0,0-5.85-2.26,20.34,20.34,0,0,0-3.9-.36c-.66,0-1.26,0-1.7.05a24.63,24.63,0,0,0-4-.29l-.7-.25-1.2-.44a21.36,21.36,0,0,0-5.18-2.76c-1.19-.43-2.26-.72-3.12-.95-.37-.1-.89-.24-1-.29a22.81,22.81,0,0,0-5-1.31l-.47-.26c-.64-.36-1.42-.8-2.3-1.25l-.46-.33a31.13,31.13,0,0,0-3.48-2.24,23.76,23.76,0,0,0-5.11-2l-1.43-.77c-.57-.3-1.16-.61-1.45-.8s-.68-.51-1-.8-1.11-.88-1.79-1.38l-.13-.14a26.3,26.3,0,0,0-2.94-2.87l-.1-.12A24.12,24.12,0,0,0,98.56,258c-.51-.42-1.09-.94-1.75-1.55l-1.47-1.31c-.73-.64-1.42-1.19-2-1.68s-1-.81-1.28-1.07a21.37,21.37,0,0,0-4.52-3.22l-4.88-5-1.66.46-1.12-.86c-.26-.2-.61-.46-.75-.59a23.78,23.78,0,0,0-3.33-2.77l-.86-1-.21-.24,2.38-4-4.29-7.21c-.7-1.18-1.43-2.17-2-3l-.5-.7c-.08-.18-.18-.45-.26-.66-.32-.81-.76-1.92-1.36-3.13L67.86,219c-.4-.77-.77-1.49-1-2.1a16.08,16.08,0,0,0-1.85-3.1,16.15,16.15,0,0,0-1-4.65,17.37,17.37,0,0,0-2.44-4.42,19.34,19.34,0,0,0-.63-3.24c-.33-1.13-.69-2.11-1-2.9-.14-.36-.32-.87-.36-1a18.46,18.46,0,0,0-2.23-5.22l-1.61-7.67-3-.44c-.26-.84-.53-1.57-.77-2.2-.11-.29-.26-.68-.32-.87-.09-.43-.18-.88-.28-1.33l0-.25a18,18,0,0,0,.89-6.24c0-1.05,0-2.18.07-3.56s.14-2.66.27-3.74c.05-.42.08-.82.11-1.21l3.41-.48,1.49-10.32c.05-.23.19-.76.29-1.12.25-.92.56-2.08.79-3.36a20,20,0,0,0,.2-5.49l.09-.28c.24-.76.51-1.62.76-2.61a28.33,28.33,0,0,0,.58-2.85,18.42,18.42,0,0,0,2.62-5c.38-1.1.65-2.09.86-2.89.11-.4.26-1,.33-1.14a30.39,30.39,0,0,0,1.14-3.8c.05-.18.1-.4.14-.56l.51-1.23c.36-.86.7-1.68,1-2.35s.7-1.56,1-2.21.52-1.23.72-1.6l3.17-6.12L70.7,109.2a29,29,0,0,0,2.49-3.93A20.6,20.6,0,0,0,75,100.14c.43-.63.93-1.31,1.45-2,.34-.46.67-.93,1-1.39s.91-1.29,1.15-1.57q.63-.72,1.23-1.44a18,18,0,0,0,4-2.16l2.32,1,6.71-6.19c.87-.8,1.62-1.59,2.22-2.22.32-.34.77-.8.92-.94a33.76,33.76,0,0,0,2.8-2.75c.15-.17.35-.38.48-.51.65-.51,1.42-1.06,2.22-1.64l1-.74c.16-.1.52-.29.79-.44.8-.44,1.91-1,3.08-1.83s2.49-1.67,3.64-2.38,2.51-1.49,3.75-2.2c1-.55,1.83-1.11,2.52-1.55.42-.27,1-.64,1.19-.75A29.61,29.61,0,0,0,121,66.19l.34-.24.76-.26c.63-.21,1.37-.45,2.18-.76h0a24.38,24.38,0,0,0,5.29-1.28c.43-.16,1.09-.36,1.79-.57s1.49-.45,2.34-.74a20.26,20.26,0,0,0,5-2.58h.05c.81-.15,1.82-.34,2.92-.62l.95-.12c.94-.11,2.11-.25,3.46-.54a21.65,21.65,0,0,0,4.65-1.59l9.92-1.72.12-2.19a17.14,17.14,0,0,0,4.09-2m-3-14.18a7.66,7.66,0,0,0-1.19.09c-1.83.28-3.13,2.6-4.55,2.92a6.12,6.12,0,0,1-1.17.13c-1.4,0-1.91-.7-2.94-.7a3.24,3.24,0,0,0-1.17.25c-2,1-3.49,2.22-3.57,3.84-1.61.28-2.53,1.17-4.11,1.51s-3.27.36-4.85.76-3.24.57-4.79,1-2.8,2-4.34,2.51-3.12.9-4.64,1.48-3.33.46-4.82,1.09-3.14,1-4.61,1.71S112.44,55.25,111,56s-2.77,1.75-4.18,2.56S104,60.16,102.61,61s-2.74,1.76-4.09,2.67-2.91,1.55-4.22,2.51-2.66,1.9-3.94,2.91-2.26,2.39-3.5,3.45S84.52,75,83.32,76.08a3.5,3.5,0,0,0-1.39-.29,6.11,6.11,0,0,0-2.87.89c-2,1.28-1.12,1.48-3.35,3.41-1,.92-3.24.94-4.52,2.2C70.12,83.36,69.11,84.68,68,86s-1.91,2.57-2.89,3.9-2,2.74-2.85,4.15-.8,3.47-1.52,4.88c-.85,1.64-2.15,2.89-2.74,4.22-1.22,2.77-1.62,2.1-2.29,4.51a5.69,5.69,0,0,0,.46,3.53c-.73,1.4-1.26,2.85-1.94,4.28s-1.25,2.9-1.87,4.36-.79,3.07-1.35,4.55-.85,3-1.37,4.52S47.45,131.46,47,133s-.46,3.16-.85,4.69-1,3-1.32,4.56.32,3.27,0,4.83-.93,3.34-1.16,4.91c-1.52.22-2.62,1.06-3.46,3a17.42,17.42,0,0,0-1.38,4.55c-.26,1.37,0,3-.22,4.82-.18,1.5-.27,3.06-.35,4.76s-.14,3.11-.08,4.76S36.78,177.41,37,179s.64,3.44.94,5c.36,1.82,1.2,3.41,1.56,4.83.76,2.93,1,2.31,2,4.6.92,1.77,1.19,3.48,2.58,3.68.32,1.53,1.57,2.32,1.94,3.82s1,2.93,1.47,4.42,0,3.26.45,4.74,2.4,2.44,2.94,3.9-.81,3.65-.22,5.08,2.78,2.2,3.42,3.61,1.38,2.76,2.08,4.14,1.1,2.91,1.85,4.27,2,2.76,2.77,4.09c-.41.68-2.34,2-2.1,3.14.63,2.12.76,1.78,1.92,4.17.56,1.16,1.25,2.6,2.1,4A45.19,45.19,0,0,0,65.53,250c1,1.23,2.56,1.94,3.59,3s2.51,2,3.54,2.92c2,1.79,1.06,2.43,3,3.66a3.83,3.83,0,0,0,1.74.42,4,4,0,0,0,1-.14c1.14,1.16,2.83,1.56,4,2.68s2.48,2,3.7,3.1,2.36,2.18,3.62,3.2,2.08,2.56,3.37,3.53,2.22,2.49,3.55,3.41,2.55,2.06,3.91,2.93,2.87,1.56,4.27,2.38,3.21.91,4.64,1.68,2.64,1.95,4.09,2.66,2.83,1.63,4.31,2.29,3.3.52,4.81,1.12,3.11.88,4.63,1.42,2.75,2,4.3,2.47,3,1.15,4.62,1.57a9.06,9.06,0,0,0,2.4.22h.28a10.38,10.38,0,0,1,2.24.17,6.23,6.23,0,0,0,1.44.14c.72,0,1.46-.07,2.18-.07a6.84,6.84,0,0,1,1.28.11c1.58.3,2.92,2,4.52,2.29s3.26.13,4.87.31,3.18,1,4.79,1.11h.33c1.45,0,3-.66,4.42-.66h.17c1.61.06,3.23.48,4.85.48,1.44,0,2.91.24,4.34.24h.42c1.58-.05,3.17-.45,4.73-.56s3.17-.29,4.73-.46a11.14,11.14,0,0,1,1.29-.06l1.93,0a10.06,10.06,0,0,0,1.56-.1c1.57-.23,3-1.42,4.53-1.71s3-1,4.55-1.33,3.22-.15,4.74-.55,2.86-1.47,4.36-1.93a3.85,3.85,0,0,1,1.13-.14c.85,0,1.76.17,2.6.17a3.69,3.69,0,0,0,1.21-.17c1.5-.52,2.95-1.23,4.42-1.8s2.47-2.32,3.91-2.94,2.83-1.37,4.25-2.05,3-1.12,4.34-1.85,2.66-1.7,4-2.48,2.53-1.86,3.87-2.69,2.73-1.53,4-2.41,3-.93,4.26-1.86a2.81,2.81,0,0,0,1.78.6A11.53,11.53,0,0,0,251.2,273c2.21-1.1,2.21.08,4.69-1.69,1.15-.82,2.48-1.86,3.93-3,1.19-1,1.95-2.63,3.25-3.79s2.51-2,3.71-3.22,2-2.53,3.12-3.8,3.25-1.81,4.26-3.17,1.71-3.07,2.62-4.46,1.14-3.44,2-4.82c1-1.64,2.42-2.81,3.11-4.12a20.45,20.45,0,0,0,2.13-4.67c.73-2.61,1-4.76-.28-6.18.76-1.42,1.35-2.42,2.06-3.86s1.58-2.84,2.23-4.32.42-3.32,1-4.82.74-3.15,1.27-4.67.69-3.12,1.17-4.66,1.61-2.86,2-4.42.54-3.16.9-4.74,2-2.87,2.27-4.46-.38-3.34-.14-4.93,1.07-3.11,1.25-4.71.69-3.19.81-4.8-1.19-3.29-1.13-4.9.58-3.19.58-4.81.3-3.35.24-5-.61-3.31-.74-5-.05-3.35-.24-5-1-3.35-1.24-5c.55-.69,1.85-1.52,2.05-2.7.23-2.4-1.34-1.88-1.48-4.83-.07-1.39-.12-3-.33-4.75-.17-1.5-.24-3.07-.55-4.73s.62-3.41.17-5-2.55-2.69-3.14-4.23-.9-3.28-1.56-4.72c-.78-1.68-.61-3.66-1.3-5-1.42-2.67-1.93-1.7-3.44-3.69-1.27-1.46-2.17-2.35-3.38-2.35a3.06,3.06,0,0,0-.81.12,2.36,2.36,0,0,1-.45.16s0,0,0,0c-.81-1.45-2-2.7-2.83-4.12s-1.84-2.72-2.75-4.1-1.06-3.28-2-4.62-1.22-3.25-2.24-4.56-3.25-1.64-4.31-2.91-1.68-2.92-2.8-4.15-2-2.68-3.16-3.86-2-2.7-3.23-3.84S255,75,253.76,73.93s-2.82-1.76-4.11-2.8-1.36-3.65-2.69-4.64-3.06-1.46-4.42-2.4-2.61-1.88-4-2.76a.2.2,0,0,0-.17-.07h-.12s-.05,0,0-.09c.37-.82,0-1.52-1.09-2.59-1.65-1.45-1.07-1.47-3.29-2.92-1.07-.7-2.15-1.86-3.56-2.65-1.22-.68-2.59-1.38-4-2a3.8,3.8,0,0,0-1.56-.27c-.64,0-1.31.08-1.93.08a3.78,3.78,0,0,1-1.28-.18c-1.56-.55-2.75-1.9-4.05-2.27-2.61-.74-2.26-.31-4.51-.64l-.53,0a2.14,2.14,0,0,0-2.18,1.08c-1.4-.46-2.75-1.66-4.18-2.08a3.23,3.23,0,0,0-.94-.12c-.91,0-1.89.25-2.8.25a3.44,3.44,0,0,1-.86-.09c-1.44-.37-2.57-2-4-2.3s-3-.15-4.41-.42c0-1.7-1.19-2.74-3.29-3.73s-1.49-1.62-4.36-2.28c-1.36-.32-3-.77-4.77-1a3.43,3.43,0,0,0-.56-.05c-1.24,0-2.63.54-4,.54l-.4,0-.47,0c-1.41,0-2.85.49-4.34.49s-3.21-1.08-4.76-1.08h-.28a8.51,8.51,0,0,1-.88,0c-1,0-2.06-.13-3-.13Z"/><path class="cls-6" d="M161.92,38.74h0c.42,0,.88,0,1.36.06s1.1.07,1.68.07c.38,0,.72,0,1,0h.11a6.35,6.35,0,0,1,1.71.43,9.55,9.55,0,0,0,3,.65,15.19,15.19,0,0,0,2.56-.28,11.1,11.1,0,0,1,1.78-.21h.3l.57,0a12.32,12.32,0,0,0,2.47-.32,8.86,8.86,0,0,1,1.51-.22l.24,0c1.24.2,2.45.5,3.51.76L185,40a3.2,3.2,0,0,1,1.77.79A7.58,7.58,0,0,0,189,42.12c2.09,1,2.1,1.58,2.1,1.93l0,1.64,1.63.3a16.4,16.4,0,0,0,2.36.21,11.76,11.76,0,0,1,2,.19,5,5,0,0,1,1.28.8A7.56,7.56,0,0,0,201,48.67a5.34,5.34,0,0,0,1.36.16,12.25,12.25,0,0,0,1.67-.14,8.56,8.56,0,0,1,1.13-.11,1.29,1.29,0,0,1,.38,0,7.93,7.93,0,0,1,1.72.87,12.11,12.11,0,0,0,2.39,1.19l1.66.51.73-1.45a1.63,1.63,0,0,1,.42,0l.31,0a15.37,15.37,0,0,0,1.93.16,7.67,7.67,0,0,1,2.25.41,6.35,6.35,0,0,1,1.34.79,10.83,10.83,0,0,0,2.6,1.45,5.62,5.62,0,0,0,1.94.29c.35,0,.71,0,1.07,0s.58,0,.86,0a2.06,2.06,0,0,1,.74.09c1.24.56,2.56,1.23,3.82,1.94a13,13,0,0,1,1.92,1.41,17.55,17.55,0,0,0,1.53,1.16,6.46,6.46,0,0,1,1.67,1.36,12.89,12.89,0,0,0,1.36,1.36c.27.27.43.45.52.56a2,2,0,0,0,.22,1.72l.63.93h.71c.71.47,1.39.95,2.11,1.46l1.43,1A16.55,16.55,0,0,0,243.8,67a11,11,0,0,1,2,1.06,5,5,0,0,1,.7,1.45,6.87,6.87,0,0,0,1.93,3.15,18.35,18.35,0,0,0,2.14,1.45,13.68,13.68,0,0,1,1.9,1.29,8.15,8.15,0,0,0,3,1.49,5.22,5.22,0,0,1,1.63.73,14.81,14.81,0,0,1,1.52,1.8,21.34,21.34,0,0,0,1.66,2,19.58,19.58,0,0,1,1.58,1.91c.48.63,1,1.27,1.53,1.89a11.78,11.78,0,0,1,1.24,1.84,15.26,15.26,0,0,0,1.51,2.25,8.12,8.12,0,0,0,2.76,1.92,5.12,5.12,0,0,1,1.5.94,7.7,7.7,0,0,1,.89,1.84,11.43,11.43,0,0,0,1.31,2.65,7.5,7.5,0,0,1,.79,1.85,11.32,11.32,0,0,0,1.19,2.71c.35.53.71,1,1.07,1.56.58.85,1.13,1.64,1.64,2.48a24.2,24.2,0,0,0,1.41,2,18.65,18.65,0,0,1,1.38,2l0,.08.05.07.62.89h1.07a2.73,2.73,0,0,0,1.09-.26l.17,0c.4,0,1.31,1,1.83,1.62a7.27,7.27,0,0,0,2,1.85,3.14,3.14,0,0,1,1.24,1.51,7,7,0,0,1,.4,1.68,11.78,11.78,0,0,0,.84,3.17,16,16,0,0,1,.78,2.31c.22.73.43,1.49.74,2.28a7.76,7.76,0,0,0,2,2.68,4.88,4.88,0,0,1,1.12,1.38,5.22,5.22,0,0,1-.11,1.83,8.51,8.51,0,0,0-.11,3,30.07,30.07,0,0,1,.38,3.06c.05.52.1,1,.16,1.53.16,1.44.22,2.77.28,3.95l0,.67a6.19,6.19,0,0,0,1.25,3.68c.26.36.28.4.25.74a4.41,4.41,0,0,1-.82.92,8.27,8.27,0,0,0-.82.85l-.54.68.13.87a21.19,21.19,0,0,0,.66,2.61,13.83,13.83,0,0,1,.58,2.3c.09.84.11,1.71.13,2.63,0,.74,0,1.51.09,2.29a21.92,21.92,0,0,0,.4,2.53,16.36,16.36,0,0,1,.34,2.36,21.68,21.68,0,0,1-.11,2.49c-.06.79-.13,1.6-.13,2.44a14.18,14.18,0,0,1-.26,2.22,19.54,19.54,0,0,0-.32,2.51,8.16,8.16,0,0,0,.7,3.18,5.14,5.14,0,0,1,.44,1.65,20,20,0,0,1-.39,2.36c-.16.76-.32,1.54-.41,2.36a10.57,10.57,0,0,1-.56,2.07,15.09,15.09,0,0,0-.69,2.57,10.56,10.56,0,0,0,.08,2.94,7.19,7.19,0,0,1,.08,1.92,5.42,5.42,0,0,1-.85,1.55,8.49,8.49,0,0,0-1.41,2.84c-.17.76-.29,1.51-.41,2.23a23.23,23.23,0,0,1-.48,2.43,9,9,0,0,1-.86,1.87,13.45,13.45,0,0,0-1.14,2.47c-.25.8-.41,1.58-.57,2.33a19.29,19.29,0,0,1-.57,2.27,21.69,21.69,0,0,0-.65,2.41,13.76,13.76,0,0,1-.6,2.18,11.1,11.1,0,0,0-.6,2.85,7.48,7.48,0,0,1-.38,1.9c-.34.77-.75,1.53-1.19,2.34-.34.62-.69,1.25-1,1.91-.45.92-.84,1.64-1.3,2.47-.23.42-.47.85-.72,1.33l-.67,1.25,1,1.05c.54.58.5,1.85-.16,4.23a14,14,0,0,1-1.28,3c-.19.34-.42.76-.71,1.32a9.34,9.34,0,0,1-1.18,1.54,17,17,0,0,0-1.88,2.5,11.79,11.79,0,0,0-1,2.59,9.09,9.09,0,0,1-.86,2.15c-.44.67-.82,1.38-1.19,2.06a17.46,17.46,0,0,1-1.37,2.3,6,6,0,0,1-1.58,1.12,9.54,9.54,0,0,0-2.59,1.93c-.48.56-.92,1.13-1.34,1.68a20.68,20.68,0,0,1-1.68,2c-.68.68-1.44,1.31-2.18,1.92-.48.39-1,.8-1.44,1.22a13.2,13.2,0,0,0-1.91,2.23,8.29,8.29,0,0,1-1.26,1.48c-1.31,1-2.68,2.13-3.84,2.95a2.87,2.87,0,0,1-1.71.76,6.77,6.77,0,0,0-2.67.75l-.17.08a10.23,10.23,0,0,1-3.16,1.09.85.85,0,0,1-.58-.2l-1.18-.89-1.2.87a5.89,5.89,0,0,1-1.62.68,10,10,0,0,0-2.57,1.14c-.7.47-1.44.89-2.22,1.33-.58.33-1.17.67-1.77,1s-1.31.89-1.91,1.34a20.38,20.38,0,0,1-1.89,1.32c-.66.37-1.27.77-1.86,1.16s-1.4.91-2.1,1.27a23.6,23.6,0,0,1-2.19.95c-.68.26-1.39.54-2.09.87l-1.61.8c-.88.44-1.71.85-2.57,1.22a8.72,8.72,0,0,0-2.49,1.84,5.5,5.5,0,0,1-1.35,1.08c-.64.24-1.27.51-1.88.77-.85.37-1.66.72-2.47,1a1.93,1.93,0,0,1-.56.06c-.32,0-.7,0-1.1-.08s-1-.09-1.5-.09a5.66,5.66,0,0,0-1.71.23,13.88,13.88,0,0,0-2.42,1.07,9.53,9.53,0,0,1-1.87.83,10.62,10.62,0,0,1-2.08.24,15.85,15.85,0,0,0-2.58.3,20.7,20.7,0,0,0-2.3.69,17.41,17.41,0,0,1-2.18.63,10.38,10.38,0,0,0-2.7,1,7,7,0,0,1-1.76.68,7.59,7.59,0,0,1-1.27.08h-.92l-1,0a13.57,13.57,0,0,0-1.51.07c-1.58.18-3.13.34-4.65.45-.79.06-1.55.18-2.29.29a18.92,18.92,0,0,1-2.37.27h-.35c-.63,0-1.29-.06-2-.11s-1.54-.13-2.35-.13a16.8,16.8,0,0,1-2.35-.23,23.22,23.22,0,0,0-2.43-.25H165a12,12,0,0,0-2.66.38,9.09,9.09,0,0,1-1.76.28h-.18a10.39,10.39,0,0,1-2.09-.49,14.13,14.13,0,0,0-2.62-.61c-.82-.1-1.61-.12-2.38-.14a22.51,22.51,0,0,1-2.42-.16,5.18,5.18,0,0,1-1.48-.83,7.8,7.8,0,0,0-3-1.46,9.07,9.07,0,0,0-1.65-.14c-.39,0-.79,0-1.19,0s-.67,0-1,0a4,4,0,0,1-1-.09,12.13,12.13,0,0,0-2.68-.22h-.28a7.53,7.53,0,0,1-1.88-.15c-.81-.22-1.63-.52-2.49-.83-.67-.25-1.35-.5-2.06-.72a6.67,6.67,0,0,1-1.66-1,10.67,10.67,0,0,0-2.56-1.47c-.76-.27-1.51-.47-2.24-.67a19.78,19.78,0,0,1-2.32-.72,12.55,12.55,0,0,0-2.77-.65,8.22,8.22,0,0,1-2-.44c-.74-.33-1.47-.75-2.25-1.19s-1.3-.73-2-1.07a13.33,13.33,0,0,1-1.89-1.22,18.82,18.82,0,0,0-2.14-1.4,11.57,11.57,0,0,0-2.66-1,8.45,8.45,0,0,1-1.91-.68c-.63-.37-1.27-.71-1.89-1-.82-.44-1.6-.85-2.31-1.3s-1.33-1-2-1.51-1.18-.94-1.82-1.38a10.35,10.35,0,0,1-1.52-1.47,14.76,14.76,0,0,0-2-1.9,9.14,9.14,0,0,1-1.44-1.51,13.76,13.76,0,0,0-1.88-2c-.77-.62-1.49-1.28-2.25-2l-1.31-1.18c-.55-.48-1.1-.92-1.64-1.35-.71-.58-1.38-1.12-2-1.71a11.17,11.17,0,0,0-2.37-1.59,6.86,6.86,0,0,1-1.58-1l-.82-.84-1.14.31a1.55,1.55,0,0,1-.48.07,1.8,1.8,0,0,1-.76-.17,1.33,1.33,0,0,1-.65-.76,7.18,7.18,0,0,0-2-2.66c-.43-.38-.91-.74-1.37-1.09a17.52,17.52,0,0,1-2-1.72,12.23,12.23,0,0,0-1.86-1.5,7.38,7.38,0,0,1-1.59-1.33c-.4-.52-.82-1-1.22-1.46a13.83,13.83,0,0,1-1.49-1.88c-.75-1.22-1.36-2.49-1.91-3.61l-.1-.22c-.45-.92-.76-1.47-1-1.87a6.57,6.57,0,0,1-.67-1.54c.19-.25.54-.6.75-.82a5.88,5.88,0,0,0,1-1.17l.62-1-.61-1c-.41-.7-.91-1.37-1.39-2a21.39,21.39,0,0,1-1.35-2,18.13,18.13,0,0,1-.9-2.07c-.27-.69-.55-1.41-.91-2.13l-.74-1.44c-.47-.9-.91-1.75-1.31-2.64a7,7,0,0,0-2.28-2.51,5.1,5.1,0,0,1-1.1-1A5.54,5.54,0,0,1,52.7,217a6.37,6.37,0,0,0,0-3.63,7.35,7.35,0,0,0-1.91-2.62,4.76,4.76,0,0,1-1-1.21,6.39,6.39,0,0,1-.15-1.8,9.6,9.6,0,0,0-.28-2.86c-.21-.74-.47-1.43-.71-2.11a20.19,20.19,0,0,1-.74-2.24A7.5,7.5,0,0,0,46.69,198a3.48,3.48,0,0,1-.66-1.23l-.29-1.36-1.24-.18A10,10,0,0,1,44,194c-.18-.43-.39-.92-.65-1.43a13.92,13.92,0,0,0-1-1.88,7.29,7.29,0,0,1-.89-2.37,19.22,19.22,0,0,0-.7-2.06,16.81,16.81,0,0,1-.83-2.64c-.09-.43-.18-.88-.28-1.33-.24-1.15-.49-2.35-.64-3.53a4.92,4.92,0,0,1,.47-1.67,8.09,8.09,0,0,0,.76-3.3c-.06-1.51,0-3,.08-4.59s.15-3.13.33-4.61a19.77,19.77,0,0,0,.11-2.7,11.69,11.69,0,0,1,.1-2,11.24,11.24,0,0,1,.73-2.79c.14-.34.31-.76.54-1.41.65-1.5,1.26-1.7,1.88-1.79l1.49-.21.21-1.48a22.33,22.33,0,0,1,.57-2.46c.22-.78.43-1.59.58-2.38a10.17,10.17,0,0,0,0-2.92,6.08,6.08,0,0,1,0-1.84,25.12,25.12,0,0,1,.69-2.44c.2-.66.42-1.35.6-2.05a18.27,18.27,0,0,0,.43-2.43,14.72,14.72,0,0,1,.41-2.19,5.44,5.44,0,0,1,1-1.42,8.49,8.49,0,0,0,1.65-2.63c.25-.72.44-1.44.63-2.14s.43-1.58.7-2.31a19.63,19.63,0,0,0,.7-2.37,14.69,14.69,0,0,1,.63-2.11c.2-.47.4-.94.59-1.41.42-1,.81-1.94,1.25-2.87.29-.62.56-1.24.81-1.83.36-.84.7-1.62,1.09-2.39l.46-.87-.42-.89a3.74,3.74,0,0,1-.32-2.24,3.91,3.91,0,0,1,.7-1.53,12.79,12.79,0,0,0,1.47-2.62,9.55,9.55,0,0,1,1.08-1.65,18.54,18.54,0,0,0,1.61-2.47,10.9,10.9,0,0,0,.83-2.71A6.89,6.89,0,0,1,64,95c.8-1.32,1.78-2.68,2.75-4l.87-1.22a31.34,31.34,0,0,1,1.91-2.55c.38-.43.75-.87,1.11-1.31.69-.82,1.34-1.6,2-2.25a5,5,0,0,1,1.81-.83A7.35,7.35,0,0,0,77,81.61a10.16,10.16,0,0,0,2-2.28,2.38,2.38,0,0,1,1-.92,4.27,4.27,0,0,1,1.86-.62,1.48,1.48,0,0,1,.59.12l1.2.52,1-.88c.58-.53,1.12-1.11,1.65-1.66a23.84,23.84,0,0,1,1.83-1.81A21.5,21.5,0,0,0,90,72.3a15.61,15.61,0,0,1,1.65-1.62c.9-.72,1.88-1.42,2.82-2.1l1.06-.77a17.9,17.9,0,0,1,2-1.22c.69-.38,1.41-.77,2.11-1.24,1.36-.91,2.69-1.81,4-2.63s2.8-1.67,4.15-2.43c.67-.38,1.3-.8,1.92-1.19s1.46-1,2.19-1.33a18.87,18.87,0,0,0,2.18-1.39A13.44,13.44,0,0,1,116,55.17a19.76,19.76,0,0,1,2.3-.86c.73-.25,1.49-.5,2.24-.82a8.61,8.61,0,0,1,2-.44,12.46,12.46,0,0,0,2.76-.62c.83-.32,1.69-.57,2.6-.85.64-.19,1.3-.39,2-.61a9.94,9.94,0,0,0,2.63-1.5,6.43,6.43,0,0,1,1.63-1,23.75,23.75,0,0,1,2.47-.54c.73-.14,1.49-.28,2.26-.47a17.81,17.81,0,0,1,2.37-.38c.77-.1,1.58-.19,2.39-.37a10,10,0,0,0,2.42-.89,6.3,6.3,0,0,1,1.62-.6l1.57-.27.08-1.59c0-.63.92-1.42,2.36-2.11a1.1,1.1,0,0,1,.39-.09,1.89,1.89,0,0,1,.47.16,6,6,0,0,0,2.47.54,7.67,7.67,0,0,0,1.59-.18,6.52,6.52,0,0,0,2.86-1.77A4.84,4.84,0,0,1,161,38.8a5.52,5.52,0,0,1,.88-.06m0-2a7.66,7.66,0,0,0-1.19.09c-1.83.28-3.13,2.6-4.55,2.92a6.12,6.12,0,0,1-1.17.13c-1.4,0-1.91-.7-2.94-.7a3.24,3.24,0,0,0-1.17.25c-2,1-3.49,2.22-3.57,3.84-1.61.28-2.53,1.17-4.11,1.51s-3.27.36-4.85.76-3.24.57-4.79,1-2.8,2-4.34,2.51-3.12.9-4.64,1.48-3.33.46-4.82,1.09-3.14,1-4.61,1.71S112.44,55.25,111,56s-2.77,1.75-4.18,2.56S104,60.16,102.61,61s-2.74,1.76-4.09,2.67-2.91,1.55-4.22,2.51-2.66,1.9-3.94,2.91-2.26,2.39-3.5,3.45S84.52,75,83.32,76.08a3.5,3.5,0,0,0-1.39-.29,6.11,6.11,0,0,0-2.87.89c-2,1.28-1.12,1.48-3.35,3.41-1,.92-3.24.94-4.52,2.2C70.12,83.36,69.11,84.68,68,86s-1.91,2.57-2.89,3.9-2,2.74-2.85,4.15-.8,3.47-1.52,4.88c-.85,1.64-2.15,2.89-2.74,4.22-1.22,2.77-1.62,2.1-2.29,4.51a5.69,5.69,0,0,0,.46,3.53c-.73,1.4-1.26,2.85-1.94,4.28s-1.25,2.9-1.87,4.36-.79,3.07-1.35,4.55-.85,3-1.37,4.52S47.45,131.46,47,133s-.46,3.16-.85,4.69-1,3-1.32,4.56.32,3.27,0,4.83-.93,3.34-1.16,4.91c-1.52.22-2.62,1.06-3.46,3a17.42,17.42,0,0,0-1.38,4.55c-.26,1.37,0,3-.22,4.82-.18,1.5-.27,3.06-.35,4.76s-.14,3.11-.08,4.76S36.78,177.41,37,179s.64,3.44.94,5c.36,1.82,1.2,3.41,1.56,4.83.76,2.93,1,2.31,2,4.6.92,1.77,1.19,3.48,2.58,3.68.32,1.53,1.57,2.32,1.94,3.82s1,2.93,1.47,4.42,0,3.26.45,4.74,2.4,2.44,2.94,3.9-.81,3.65-.22,5.08,2.78,2.2,3.42,3.61,1.38,2.76,2.08,4.14,1.1,2.91,1.85,4.27,2,2.76,2.77,4.09c-.41.68-2.34,2-2.1,3.14.63,2.12.76,1.78,1.92,4.17.56,1.16,1.25,2.6,2.1,4A45.19,45.19,0,0,0,65.53,250c1,1.23,2.56,1.94,3.59,3s2.51,2,3.54,2.92c2,1.79,1.06,2.43,3,3.66a3.83,3.83,0,0,0,1.74.42,4,4,0,0,0,1-.14c1.14,1.16,2.83,1.56,4,2.68s2.48,2,3.7,3.1,2.36,2.18,3.62,3.2,2.08,2.56,3.37,3.53,2.22,2.49,3.55,3.41,2.55,2.06,3.91,2.93,2.87,1.56,4.27,2.38,3.21.91,4.64,1.68,2.64,1.95,4.09,2.66,2.83,1.63,4.31,2.29,3.3.52,4.81,1.12,3.11.88,4.63,1.42,2.75,2,4.3,2.47,3,1.15,4.62,1.57a9.06,9.06,0,0,0,2.4.22h.28a10.38,10.38,0,0,1,2.24.17,6.23,6.23,0,0,0,1.44.14c.72,0,1.46-.07,2.18-.07a6.84,6.84,0,0,1,1.28.11c1.58.3,2.92,2,4.52,2.29s3.26.13,4.87.31,3.18,1,4.79,1.11h.33c1.45,0,3-.66,4.42-.66h.17c1.61.06,3.23.48,4.85.48,1.44,0,2.91.24,4.34.24h.42c1.58-.05,3.17-.45,4.73-.56s3.17-.29,4.73-.46a11.14,11.14,0,0,1,1.29-.06l1.93,0a10.06,10.06,0,0,0,1.56-.1c1.57-.23,3-1.42,4.53-1.71s3-1,4.55-1.33,3.22-.15,4.74-.55,2.86-1.47,4.36-1.93a3.85,3.85,0,0,1,1.13-.14c.85,0,1.76.17,2.6.17a3.69,3.69,0,0,0,1.21-.17c1.5-.52,2.95-1.23,4.42-1.8s2.47-2.32,3.91-2.94,2.83-1.37,4.25-2.05,3-1.12,4.34-1.85,2.66-1.7,4-2.48,2.53-1.86,3.87-2.69,2.73-1.53,4-2.41,3-.93,4.26-1.86a2.81,2.81,0,0,0,1.78.6A11.53,11.53,0,0,0,251.2,273c2.21-1.1,2.21.08,4.69-1.69,1.15-.82,2.48-1.86,3.93-3,1.19-1,1.95-2.63,3.25-3.79s2.51-2,3.71-3.22,2-2.53,3.12-3.8,3.25-1.81,4.26-3.17,1.71-3.07,2.62-4.46,1.14-3.44,2-4.82c1-1.64,2.42-2.81,3.11-4.12a20.45,20.45,0,0,0,2.13-4.67c.73-2.61,1-4.76-.28-6.18.76-1.42,1.35-2.42,2.06-3.86s1.58-2.84,2.23-4.32.42-3.32,1-4.82.74-3.15,1.27-4.67.69-3.12,1.17-4.66,1.61-2.86,2-4.42.54-3.16.9-4.74,2-2.87,2.27-4.46-.38-3.34-.14-4.93,1.07-3.11,1.25-4.71.69-3.19.81-4.8-1.19-3.29-1.13-4.9.58-3.19.58-4.81.3-3.35.24-5-.61-3.31-.74-5-.05-3.35-.24-5-1-3.35-1.24-5c.55-.69,1.85-1.52,2.05-2.7.23-2.4-1.34-1.88-1.48-4.83-.07-1.39-.12-3-.33-4.75-.17-1.5-.24-3.07-.55-4.73s.62-3.41.17-5-2.55-2.69-3.14-4.23-.9-3.28-1.56-4.72c-.78-1.68-.61-3.66-1.3-5-1.42-2.67-1.93-1.7-3.44-3.69-1.27-1.46-2.17-2.35-3.38-2.35a3.06,3.06,0,0,0-.81.12,2.36,2.36,0,0,1-.45.16s0,0,0,0c-.81-1.45-2-2.7-2.83-4.12s-1.84-2.72-2.75-4.1-1.06-3.28-2-4.62-1.22-3.25-2.24-4.56-3.25-1.64-4.31-2.91-1.68-2.92-2.8-4.15-2-2.68-3.16-3.86-2-2.7-3.23-3.84S255,75,253.76,73.93s-2.82-1.76-4.11-2.8-1.36-3.65-2.69-4.64-3.06-1.46-4.42-2.4-2.61-1.88-4-2.76a.2.2,0,0,0-.17-.07h-.12s-.05,0,0-.09c.37-.82,0-1.52-1.09-2.59-1.65-1.45-1.07-1.47-3.29-2.92-1.07-.7-2.15-1.86-3.56-2.65-1.22-.68-2.59-1.38-4-2a3.8,3.8,0,0,0-1.56-.27c-.64,0-1.31.08-1.93.08a3.78,3.78,0,0,1-1.28-.18c-1.56-.55-2.75-1.9-4.05-2.27-2.61-.74-2.26-.31-4.51-.64l-.53,0a2.14,2.14,0,0,0-2.18,1.08c-1.4-.46-2.75-1.66-4.18-2.08a3.23,3.23,0,0,0-.94-.12c-.91,0-1.89.25-2.8.25a3.44,3.44,0,0,1-.86-.09c-1.44-.37-2.57-2-4-2.3s-3-.15-4.41-.42c0-1.7-1.19-2.74-3.29-3.73s-1.49-1.62-4.36-2.28c-1.36-.32-3-.77-4.77-1a3.43,3.43,0,0,0-.56-.05c-1.24,0-2.63.54-4,.54l-.4,0-.47,0c-1.41,0-2.85.49-4.34.49s-3.21-1.08-4.76-1.08h-.28a8.51,8.51,0,0,1-.88,0c-1,0-2.06-.13-3-.13Z"/></g></g></svg>